<?xml version="1.0" encoding="UTF-8" standalone="no"?>
<!-- Created with Inkscape (http://www.inkscape.org/) -->

<svg
   xmlns:dc="http://purl.org/dc/elements/1.1/"
   xmlns:cc="http://creativecommons.org/ns#"
   xmlns:rdf="http://www.w3.org/1999/02/22-rdf-syntax-ns#"
   xmlns:svg="http://www.w3.org/2000/svg"
   xmlns="http://www.w3.org/2000/svg"
   xmlns:xlink="http://www.w3.org/1999/xlink"
   xmlns:sodipodi="http://sodipodi.sourceforge.net/DTD/sodipodi-0.dtd"
   xmlns:inkscape="http://www.inkscape.org/namespaces/inkscape"
   width="64px"
   height="64px"
   id="svg2985"
   version="1.1"
   inkscape:version="0.48.4 r9939"
   sodipodi:docname="rxassistant.svg">
  <defs
     id="defs2987">
    <linearGradient
       id="linearGradient17321">
      <stop
         id="stop17323"
         offset="0"
         style="stop-color:#007aff;stop-opacity:1;" />
      <stop
         id="stop17325"
         offset="1"
         style="stop-color:#00bbff;stop-opacity:0.96428573;" />
    </linearGradient>
    <linearGradient
       id="linearGradient17307">
      <stop
         id="stop17309"
         offset="0"
         style="stop-color:#646464;stop-opacity:1;" />
      <stop
         id="stop17311"
         offset="1"
         style="stop-color:#969696;stop-opacity:1;" />
    </linearGradient>
    <linearGradient
       id="linearGradient17261">
      <stop
         style="stop-color:#000000;stop-opacity:1;"
         offset="0"
         id="stop17263" />
      <stop
         style="stop-color:#ffffff;stop-opacity:1;"
         offset="1"
         id="stop17265" />
    </linearGradient>
    <linearGradient
       id="linearGradient14310">
      <stop
         style="stop-color:#969696;stop-opacity:1;"
         offset="0"
         id="stop14312" />
      <stop
         style="stop-color:#ffffff;stop-opacity:1;"
         offset="1"
         id="stop14314" />
    </linearGradient>
    <linearGradient
       id="linearGradient14038">
      <stop
         style="stop-color:#34fd22;stop-opacity:1;"
         offset="0"
         id="stop14040" />
      <stop
         style="stop-color:#ffffff;stop-opacity:1;"
         offset="1"
         id="stop14042" />
    </linearGradient>
    <linearGradient
       id="linearGradient13992">
      <stop
         style="stop-color:#969696;stop-opacity:1;"
         offset="0"
         id="stop13994" />
      <stop
         style="stop-color:#dcdcdc;stop-opacity:1;"
         offset="1"
         id="stop13996" />
    </linearGradient>
    <linearGradient
       inkscape:collect="always"
       id="linearGradient13785">
      <stop
         style="stop-color:#868686;stop-opacity:1;"
         offset="0"
         id="stop13787" />
      <stop
         style="stop-color:#868686;stop-opacity:0;"
         offset="1"
         id="stop13789" />
    </linearGradient>
    <linearGradient
       inkscape:collect="always"
       xlink:href="#linearGradient7235"
       id="linearGradient7241"
       x1="38.488468"
       y1="14.636974"
       x2="53.132465"
       y2="38.425556"
       gradientUnits="userSpaceOnUse" />
    <linearGradient
       id="linearGradient7235">
      <stop
         style="stop-color:#ffffff;stop-opacity:1;"
         offset="0"
         id="stop7237" />
      <stop
         id="stop7245"
         offset="0.5"
         style="stop-color:#000084;stop-opacity:1;" />
      <stop
         style="stop-color:#ffffff;stop-opacity:1;"
         offset="1"
         id="stop7239" />
    </linearGradient>
    <linearGradient
       id="linearGradient7554">
      <stop
         style="stop-color:#44a076;stop-opacity:1;"
         offset="0"
         id="stop7556" />
      <stop
         style="stop-color:#6e6e6e;stop-opacity:1;"
         offset="1"
         id="stop7558" />
    </linearGradient>
    <linearGradient
       id="linearGradient7199">
      <stop
         style="stop-color:#0e7aff;stop-opacity:1;"
         offset="0"
         id="stop7201" />
      <stop
         id="stop7217"
         offset="0.34722221"
         style="stop-color:#a3a3ff;stop-opacity:1;" />
      <stop
         style="stop-color:#0e7aff;stop-opacity:1;"
         offset="1"
         id="stop7203" />
    </linearGradient>
    <radialGradient
       inkscape:collect="always"
       xlink:href="#linearGradient7199"
       id="radialGradient7213"
       cx="45.443756"
       cy="42.378017"
       fx="45.443756"
       fy="42.378017"
       r="12.022013"
       gradientTransform="matrix(1,0,0,0.55295756,-82.41577,47.897169)"
       gradientUnits="userSpaceOnUse" />
    <linearGradient
       id="linearGradient12896">
      <stop
         style="stop-color:#000084;stop-opacity:1;"
         offset="0"
         id="stop12898" />
      <stop
         id="stop12900"
         offset="0.34722221"
         style="stop-color:#a3a3ff;stop-opacity:1;" />
      <stop
         style="stop-color:#000082;stop-opacity:1;"
         offset="1"
         id="stop12902" />
    </linearGradient>
    <radialGradient
       inkscape:collect="always"
       xlink:href="#linearGradient7199"
       id="radialGradient7215"
       cx="47.432465"
       cy="46.124008"
       fx="47.432465"
       fy="46.124008"
       r="11.944893"
       gradientTransform="matrix(1,0,0,0.56800773,-82.41577,48.877611)"
       gradientUnits="userSpaceOnUse" />
    <linearGradient
       id="linearGradient12905">
      <stop
         style="stop-color:#000084;stop-opacity:1;"
         offset="0"
         id="stop12907" />
      <stop
         id="stop12909"
         offset="0.34722221"
         style="stop-color:#a3a3ff;stop-opacity:1;" />
      <stop
         style="stop-color:#000082;stop-opacity:1;"
         offset="1"
         id="stop12911" />
    </linearGradient>
    <radialGradient
       inkscape:collect="always"
       xlink:href="#linearGradient7199"
       id="radialGradient7205"
       cx="29.701878"
       cy="12.726216"
       fx="29.701878"
       fy="12.726216"
       r="12.633773"
       gradientTransform="matrix(1,0,0,0.44007131,-82.41577,36.078171)"
       gradientUnits="userSpaceOnUse" />
    <linearGradient
       id="linearGradient12914">
      <stop
         style="stop-color:#000084;stop-opacity:1;"
         offset="0"
         id="stop12916" />
      <stop
         id="stop12918"
         offset="0.34722221"
         style="stop-color:#a3a3ff;stop-opacity:1;" />
      <stop
         style="stop-color:#000082;stop-opacity:1;"
         offset="1"
         id="stop12920" />
    </linearGradient>
    <radialGradient
       inkscape:collect="always"
       xlink:href="#linearGradient7199"
       id="radialGradient7207"
       cx="31.698477"
       cy="16.487062"
       fx="31.698477"
       fy="16.487062"
       r="12.556053"
       gradientTransform="matrix(1,0,0,0.45380372,-82.41577,37.957569)"
       gradientUnits="userSpaceOnUse" />
    <linearGradient
       id="linearGradient12923">
      <stop
         style="stop-color:#000084;stop-opacity:1;"
         offset="0"
         id="stop12925" />
      <stop
         id="stop12927"
         offset="0.34722221"
         style="stop-color:#a3a3ff;stop-opacity:1;" />
      <stop
         style="stop-color:#000082;stop-opacity:1;"
         offset="1"
         id="stop12929" />
    </linearGradient>
    <linearGradient
       id="linearGradient12932">
      <stop
         style="stop-color:#000084;stop-opacity:1;"
         offset="0"
         id="stop12934" />
      <stop
         id="stop12936"
         offset="0.34722221"
         style="stop-color:#a3a3ff;stop-opacity:1;" />
      <stop
         style="stop-color:#000082;stop-opacity:1;"
         offset="1"
         id="stop12938" />
    </linearGradient>
    <linearGradient
       id="linearGradient7544">
      <stop
         style="stop-color:#3c3c3c;stop-opacity:1;"
         offset="0"
         id="stop7546" />
      <stop
         id="stop7548"
         offset="1"
         style="stop-color:#ffffff;stop-opacity:1;" />
    </linearGradient>
    <radialGradient
       inkscape:collect="always"
       xlink:href="#linearGradient7544-0"
       id="radialGradient7552-1"
       cx="17.25"
       cy="37.494015"
       fx="17.25"
       fy="37.494015"
       r="12.077639"
       gradientTransform="matrix(0.69488813,-0.31445671,0.1964568,0.48691261,-4.3897304,24.938374)"
       gradientUnits="userSpaceOnUse" />
    <linearGradient
       id="linearGradient7544-0">
      <stop
         style="stop-color:#3c3c3c;stop-opacity:1;"
         offset="0"
         id="stop7546-8" />
      <stop
         id="stop7548-1"
         offset="1"
         style="stop-color:#ffffff;stop-opacity:1;" />
    </linearGradient>
    <radialGradient
       inkscape:collect="always"
       xlink:href="#linearGradient7544-9"
       id="radialGradient7552-4"
       cx="17.25"
       cy="37.494015"
       fx="17.25"
       fy="37.494015"
       r="12.077639"
       gradientTransform="matrix(0.69488813,-0.31445671,0.1964568,0.48691261,-4.3897304,24.938374)"
       gradientUnits="userSpaceOnUse" />
    <linearGradient
       id="linearGradient7544-9">
      <stop
         style="stop-color:#3c3c3c;stop-opacity:1;"
         offset="0"
         id="stop7546-1" />
      <stop
         id="stop7548-5"
         offset="1"
         style="stop-color:#ffffff;stop-opacity:1;" />
    </linearGradient>
    <radialGradient
       inkscape:collect="always"
       xlink:href="#linearGradient7544-3"
       id="radialGradient7552-3"
       cx="17.25"
       cy="37.494015"
       fx="17.25"
       fy="37.494015"
       r="12.077639"
       gradientTransform="matrix(0.41589397,0.68680529,-0.46321152,0.272744,25.779866,15.734765)"
       gradientUnits="userSpaceOnUse" />
    <linearGradient
       id="linearGradient7544-3">
      <stop
         style="stop-color:#3c3c3c;stop-opacity:1;"
         offset="0"
         id="stop7546-4" />
      <stop
         id="stop7548-2"
         offset="1"
         style="stop-color:#ffffff;stop-opacity:1;" />
    </linearGradient>
    <radialGradient
       inkscape:collect="always"
       xlink:href="#linearGradient7544-1"
       id="radialGradient7552-0"
       cx="17.25"
       cy="37.494015"
       fx="17.25"
       fy="37.494015"
       r="12.077639"
       gradientTransform="matrix(0.41589397,0.68680529,-0.46321152,0.272744,25.779866,15.734765)"
       gradientUnits="userSpaceOnUse" />
    <linearGradient
       id="linearGradient7544-1">
      <stop
         style="stop-color:#3c3c3c;stop-opacity:1;"
         offset="0"
         id="stop7546-2" />
      <stop
         id="stop7548-7"
         offset="1"
         style="stop-color:#ffffff;stop-opacity:1;" />
    </linearGradient>
    <radialGradient
       inkscape:collect="always"
       xlink:href="#linearGradient7544-4"
       id="radialGradient7552-2"
       cx="17.25"
       cy="37.494015"
       fx="17.25"
       fy="37.494015"
       r="12.077639"
       gradientTransform="matrix(0.41589397,0.68680529,-0.46321152,0.272744,25.779866,15.734765)"
       gradientUnits="userSpaceOnUse" />
    <linearGradient
       id="linearGradient7544-4">
      <stop
         style="stop-color:#3c3c3c;stop-opacity:1;"
         offset="0"
         id="stop7546-10" />
      <stop
         id="stop7548-3"
         offset="1"
         style="stop-color:#ffffff;stop-opacity:1;" />
    </linearGradient>
    <linearGradient
       inkscape:collect="always"
       xlink:href="#linearGradient13785"
       id="linearGradient13791"
       x1="5.0846548"
       y1="28.359692"
       x2="20.794384"
       y2="41.177876"
       gradientUnits="userSpaceOnUse"
       gradientTransform="translate(-78.90909,29.818182)" />
    <linearGradient
       inkscape:collect="always"
       xlink:href="#linearGradient7544"
       id="linearGradient13793"
       x1="32.608185"
       y1="64.988373"
       x2="15.5614"
       y2="37.533825"
       gradientUnits="userSpaceOnUse"
       gradientTransform="translate(-78.90909,29.818182)" />
    <linearGradient
       inkscape:collect="always"
       xlink:href="#linearGradient13785-7"
       id="linearGradient13791-9"
       x1="5.0846548"
       y1="28.359692"
       x2="20.794384"
       y2="41.177876"
       gradientUnits="userSpaceOnUse"
       gradientTransform="translate(0.90909091,1.2727273)" />
    <linearGradient
       inkscape:collect="always"
       id="linearGradient13785-7">
      <stop
         style="stop-color:#868686;stop-opacity:1;"
         offset="0"
         id="stop13787-2" />
      <stop
         style="stop-color:#868686;stop-opacity:0;"
         offset="1"
         id="stop13789-0" />
    </linearGradient>
    <linearGradient
       inkscape:collect="always"
       xlink:href="#linearGradient7544-6"
       id="linearGradient13793-8"
       x1="32.608185"
       y1="64.988373"
       x2="15.5614"
       y2="37.533825"
       gradientUnits="userSpaceOnUse"
       gradientTransform="translate(0.90909091,1.2727273)" />
    <linearGradient
       id="linearGradient7544-6">
      <stop
         style="stop-color:#3c3c3c;stop-opacity:1;"
         offset="0"
         id="stop7546-7" />
      <stop
         id="stop7548-0"
         offset="1"
         style="stop-color:#ffffff;stop-opacity:1;" />
    </linearGradient>
    <linearGradient
       inkscape:collect="always"
       xlink:href="#linearGradient7544-6-8"
       id="linearGradient13902-1"
       gradientUnits="userSpaceOnUse"
       gradientTransform="matrix(0.51672369,0,0,0.51672369,35.524564,6.8280944)"
       x1="32.608185"
       y1="64.988373"
       x2="15.5614"
       y2="37.533825" />
    <linearGradient
       id="linearGradient7544-6-8">
      <stop
         style="stop-color:#3c3c3c;stop-opacity:1;"
         offset="0"
         id="stop7546-7-3" />
      <stop
         id="stop7548-0-0"
         offset="1"
         style="stop-color:#ffffff;stop-opacity:1;" />
    </linearGradient>
    <linearGradient
       inkscape:collect="always"
       xlink:href="#linearGradient7544-6-2"
       id="linearGradient13902-6"
       gradientUnits="userSpaceOnUse"
       gradientTransform="matrix(0.51672369,0,0,0.51672369,35.524564,6.8280944)"
       x1="32.608185"
       y1="64.988373"
       x2="15.5614"
       y2="37.533825" />
    <linearGradient
       id="linearGradient7544-6-2">
      <stop
         style="stop-color:#3c3c3c;stop-opacity:1;"
         offset="0"
         id="stop7546-7-0" />
      <stop
         id="stop7548-0-2"
         offset="1"
         style="stop-color:#ffffff;stop-opacity:1;" />
    </linearGradient>
    <linearGradient
       inkscape:collect="always"
       xlink:href="#linearGradient13785-1"
       id="linearGradient13791-4"
       x1="5.0846548"
       y1="28.359692"
       x2="20.794384"
       y2="41.177876"
       gradientUnits="userSpaceOnUse"
       gradientTransform="translate(0.90909091,1.2727273)" />
    <linearGradient
       inkscape:collect="always"
       id="linearGradient13785-1">
      <stop
         style="stop-color:#868686;stop-opacity:1;"
         offset="0"
         id="stop13787-8" />
      <stop
         style="stop-color:#868686;stop-opacity:0;"
         offset="1"
         id="stop13789-3" />
    </linearGradient>
    <linearGradient
       inkscape:collect="always"
       xlink:href="#linearGradient13992"
       id="linearGradient13998"
       x1="34.153175"
       y1="34.527576"
       x2="31.079491"
       y2="31.450834"
       gradientUnits="userSpaceOnUse"
       gradientTransform="translate(-79.818181,28.545455)" />
    <linearGradient
       inkscape:collect="always"
       xlink:href="#linearGradient13992-8"
       id="linearGradient13998-5"
       x1="34.153175"
       y1="34.527576"
       x2="25.806763"
       y2="22.723562"
       gradientUnits="userSpaceOnUse" />
    <linearGradient
       inkscape:collect="always"
       id="linearGradient13992-8">
      <stop
         style="stop-color:#404040;stop-opacity:1;"
         offset="0"
         id="stop13994-1" />
      <stop
         style="stop-color:#404040;stop-opacity:0;"
         offset="1"
         id="stop13996-7" />
    </linearGradient>
    <linearGradient
       inkscape:collect="always"
       xlink:href="#linearGradient14038"
       id="linearGradient14044"
       x1="-1.8382406"
       y1="42.222927"
       x2="-1.6026539"
       y2="41.186329"
       gradientUnits="userSpaceOnUse"
       gradientTransform="translate(-85.094218,-5.7868845)" />
    <linearGradient
       inkscape:collect="always"
       xlink:href="#linearGradient14310"
       id="linearGradient14316"
       x1="31.944141"
       y1="43.710094"
       x2="31.554195"
       y2="6.1691561"
       gradientUnits="userSpaceOnUse" />
    <linearGradient
       inkscape:collect="always"
       xlink:href="#linearGradient14310"
       id="linearGradient14322"
       gradientUnits="userSpaceOnUse"
       x1="31.944141"
       y1="43.710094"
       x2="31.554195"
       y2="6.1691561" />
    <linearGradient
       inkscape:collect="always"
       xlink:href="#linearGradient14310"
       id="linearGradient16619"
       gradientUnits="userSpaceOnUse"
       gradientTransform="matrix(0.9998477,0.01745241,-0.01745241,0.9998477,0.55694413,-0.56947661)"
       x1="31.944141"
       y1="43.710094"
       x2="31.554195"
       y2="6.1691561" />
    <linearGradient
       inkscape:collect="always"
       xlink:href="#linearGradient17261"
       id="linearGradient17267"
       x1="85.09375"
       y1="62.769886"
       x2="6.272727"
       y2="33.678978"
       gradientUnits="userSpaceOnUse"
       gradientTransform="translate(-88.545455,-41.454545)" />
    <linearGradient
       inkscape:collect="always"
       xlink:href="#linearGradient17321-3"
       id="linearGradient17319-9"
       x1="6.2590904"
       y1="66.36364"
       x2="28.649998"
       y2="51.636364"
       gradientUnits="userSpaceOnUse" />
    <linearGradient
       id="linearGradient17321-3">
      <stop
         id="stop17323-5"
         offset="0"
         style="stop-color:#007aff;stop-opacity:1;" />
      <stop
         id="stop17325-4"
         offset="1"
         style="stop-color:#00bbff;stop-opacity:0.96428573;" />
    </linearGradient>
    <linearGradient
       inkscape:collect="always"
       xlink:href="#linearGradient17321-3"
       id="linearGradient17489"
       gradientUnits="userSpaceOnUse"
       x1="3.5681815"
       y1="58.18182"
       x2="35.522728"
       y2="58.18182"
       gradientTransform="matrix(1.2701141,0,0,1.2701141,4.1870948,-31.880309)" />
  </defs>
  <sodipodi:namedview
     id="base"
     pagecolor="#ffffff"
     bordercolor="#666666"
     borderopacity="1.0"
     inkscape:pageopacity="0.0"
     inkscape:pageshadow="2"
     inkscape:zoom="7.7781746"
     inkscape:cx="36.774202"
     inkscape:cy="26.612996"
     inkscape:current-layer="layer1"
     showgrid="true"
     inkscape:document-units="px"
     inkscape:grid-bbox="true"
     inkscape:snap-global="false"
     inkscape:window-width="1440"
     inkscape:window-height="878"
     inkscape:window-x="1272"
     inkscape:window-y="-8"
     inkscape:window-maximized="1"
     inkscape:snap-grids="false"
     inkscape:snap-to-guides="false"
     inkscape:snap-bbox="true"
     inkscape:bbox-paths="true"
     inkscape:bbox-nodes="true"
     inkscape:snap-bbox-edge-midpoints="true"
     inkscape:snap-bbox-midpoints="true"
     inkscape:object-paths="true"
     inkscape:snap-intersection-paths="true"
     inkscape:object-nodes="true"
     inkscape:snap-smooth-nodes="true"
     inkscape:snap-midpoints="true"
     inkscape:snap-object-midpoints="true">
    <inkscape:grid
       type="xygrid"
       id="grid2993"
       empspacing="5"
       visible="true"
       enabled="true"
       snapvisiblegridlinesonly="true" />
  </sodipodi:namedview>
  <metadata
     id="metadata2990">
    <rdf:RDF>
      <cc:Work
         rdf:about="">
        <dc:format>image/svg+xml</dc:format>
        <dc:type
           rdf:resource="http://purl.org/dc/dcmitype/StillImage" />
        <dc:title />
      </cc:Work>
    </rdf:RDF>
  </metadata>
  <g
     id="layer1"
     inkscape:label="Layer 1"
     inkscape:groupmode="layer">
    <path
       sodipodi:type="arc"
       style="color:#000000;fill:none;stroke:#161616;stroke-width:1;stroke-opacity:1;marker:none;visibility:visible;display:inline;overflow:visible;enable-background:accumulate"
       id="path14093-8"
       sodipodi:cx="38.18182"
       sodipodi:cy="34.363636"
       sodipodi:rx="11.818182"
       sodipodi:ry="11.818182"
       d="m 50.000002,34.363636 a 11.818182,11.818182 0 1 1 -23.636364,0 11.818182,11.818182 0 1 1 23.636364,0 z"
       transform="matrix(0.93846154,0,0,0.93846154,-4.7166285,92.702162)" />
    <path
       sodipodi:type="arc"
       style="color:#000000;fill:none;stroke:#161616;stroke-width:0.48538205;stroke-miterlimit:4;stroke-opacity:1;stroke-dasharray:none;marker:none;visibility:visible;display:inline;overflow:visible;enable-background:accumulate"
       id="path14093-1-2"
       sodipodi:cx="38.18182"
       sodipodi:cy="34.363636"
       sodipodi:rx="11.818182"
       sodipodi:ry="11.818182"
       d="m 50.000002,34.363636 a 11.818182,11.818182 0 1 1 -23.636364,0 11.818182,11.818182 0 1 1 23.636364,0 z"
       transform="matrix(2.1205329,0,0,2.1205329,-49.850263,52.08189)" />
    <rect
       style="color:#000000;fill:none;stroke:#161616;stroke-width:1.16883111;stroke-linecap:square;stroke-linejoin:miter;stroke-miterlimit:4;stroke-opacity:1;stroke-dasharray:none;stroke-dashoffset:0;marker:none;visibility:visible;display:inline;overflow:visible;enable-background:accumulate"
       id="rect14122-3"
       width="8.7472286"
       height="7.4348159"
       x="78.05558"
       y="65.481331"
       ry="1.0739179"
       transform="matrix(0.72572545,0.68798443,-0.68798443,0.72572545,0,0)" />
    <path
       style="color:#000000;fill:none;stroke:#ff1616;stroke-width:1.02926862;stroke-miterlimit:4;stroke-opacity:1;stroke-dasharray:none;marker:none;visibility:visible;display:inline;overflow:visible;enable-background:accumulate"
       d="m 31.112699,99.877249 c -5.782791,0 -10.781684,2.055451 -14.28309,4.445581 L 12.362698,101.971 c -0.431771,-0.40932 -1.090683,-0.40052 -1.5,0.0312 L 7.2064485,105.846 c -0.409316,0.43177 -0.36927,1.09068 0.0625,1.5 l 2.680956,4.22106 c -2.239538,3.35157 -3.899706,8.00252 -3.899706,13.37269 0,13.84072 11.2217785,25.0625 25.0625005,25.0625 13.840722,0 25.0625,-11.22178 25.0625,-25.0625 0,-13.84072 -11.221778,-25.062501 -25.0625,-25.062501 z"
       id="path14093-1-3-06"
       inkscape:connector-curvature="0"
       sodipodi:nodetypes="sccccccssss" />
    <path
       style="color:#000000;fill:none;stroke:#ff1616;stroke-width:1.02926862;stroke-miterlimit:4;stroke-opacity:1;stroke-dasharray:none;marker:none;visibility:visible;display:inline;overflow:visible;enable-background:accumulate"
       d="m 31.112699,150.00225 c 5.782791,0 10.781684,-2.05545 14.28309,-4.44558 l 4.46691,2.35183 c 0.431771,0.40932 1.090683,0.40052 1.5,-0.0312 l 3.65625,-3.84375 c 0.409317,-0.43177 0.369271,-1.09068 -0.0625,-1.5 l -2.680956,-4.22106 c 2.239538,-3.35157 3.899706,-8.00253 3.899706,-13.37269 0,-13.84072 -11.221778,-25.062501 -25.0625,-25.062501 -13.840722,0 -25.0625005,11.221781 -25.0625005,25.062501 0,13.84072 11.2217785,25.0625 25.0625005,25.0625 z"
       id="path14093-1-3-9-5"
       inkscape:connector-curvature="0"
       sodipodi:nodetypes="sccccccssss" />
    <path
       style="color:#000000;fill:none;stroke:#ff1616;stroke-width:1.02926862;stroke-miterlimit:4;stroke-opacity:1;stroke-dasharray:none;marker:none;visibility:visible;display:inline;overflow:visible;enable-background:accumulate"
       d="m 48.834563,142.66161 c 4.08905,-4.08905 6.170376,-9.07722 6.956171,-13.24316 l 4.821576,-1.49559 c 0.594739,-0.0159 1.05444,-0.48802 1.038563,-1.08276 l -0.132582,-5.3033 c -0.01588,-0.59474 -0.510116,-1.03235 -1.104855,-1.01647 l -4.880462,-1.08902 c -0.786328,-3.95351 -2.901132,-8.41615 -6.698411,-12.21342 -9.786869,-9.786873 -25.656859,-9.786873 -35.443728,0 -9.7868686,9.78686 -9.7868686,25.65686 0,35.44372 9.786869,9.78687 25.656859,9.78687 35.443728,0 z"
       id="path14093-1-3-5-0"
       inkscape:connector-curvature="0"
       sodipodi:nodetypes="sccccccssss" />
    <path
       style="color:#000000;fill:none;stroke:#ff1616;stroke-width:1.02926862;stroke-miterlimit:4;stroke-opacity:1;stroke-dasharray:none;marker:none;visibility:visible;display:inline;overflow:visible;enable-background:accumulate"
       d="m 56.175199,124.93975 c 0,-5.78279 -2.055454,-10.78169 -4.445578,-14.28309 l 2.351828,-4.46691 c 0.409317,-0.43177 0.400521,-1.09068 -0.03125,-1.5 l -3.84375,-3.65625 c -0.431771,-0.40932 -1.090683,-0.36927 -1.5,0.0625 l -4.22106,2.68095 c -3.351574,-2.23953 -8.002526,-3.899701 -13.37269,-3.899701 -13.840722,0 -25.0625005,11.221781 -25.0625005,25.062501 0,13.84072 11.2217785,25.0625 25.0625005,25.0625 13.840722,0 25.0625,-11.22178 25.0625,-25.0625 z"
       id="path14093-1-3-55-9"
       inkscape:connector-curvature="0"
       sodipodi:nodetypes="sccccccssss" />
    <path
       style="color:#000000;fill:none;stroke:#ff1616;stroke-width:1.02926862;stroke-miterlimit:4;stroke-opacity:1;stroke-dasharray:none;marker:none;visibility:visible;display:inline;overflow:visible;enable-background:accumulate"
       d="m 48.834563,107.21789 c -4.089051,-4.08906 -9.077228,-6.17038 -13.243168,-6.95618 l -1.495589,-4.821572 c -0.01588,-0.594739 -0.488019,-1.05444 -1.082758,-1.038563 l -5.3033,0.132582 c -0.594739,0.01588 -1.032343,0.510116 -1.016466,1.104855 l -1.089018,4.880458 c -3.953514,0.78633 -8.416149,2.90114 -12.213429,6.69841 -9.7868686,9.78687 -9.7868686,25.65687 0,35.44373 9.786869,9.78687 25.656859,9.78687 35.443728,0 9.786868,-9.78686 9.786868,-25.65686 0,-35.44372 z"
       id="path14093-1-3-6-7"
       inkscape:connector-curvature="0"
       sodipodi:nodetypes="sccccccssss" />
    <path
       style="color:#000000;fill:none;stroke:#ff1616;stroke-width:1.02926862;stroke-miterlimit:4;stroke-opacity:1;stroke-dasharray:none;marker:none;visibility:visible;display:inline;overflow:visible;enable-background:accumulate"
       d="m 13.390835,142.66161 c 4.089051,4.08905 9.077228,6.17038 13.243168,6.95618 l 1.495589,4.82157 c 0.01588,0.59474 0.488019,1.05444 1.082758,1.03856 l 5.3033,-0.13258 c 0.594739,-0.0159 1.032343,-0.51011 1.016466,-1.10485 l 1.089018,-4.88046 c 3.953514,-0.78633 8.416149,-2.90114 12.213429,-6.69842 9.786868,-9.78686 9.786868,-25.65686 0,-35.44372 -9.786869,-9.786873 -25.656859,-9.786873 -35.443728,0 -9.7868686,9.78686 -9.7868686,25.65686 0,35.44372 z"
       id="path14093-1-3-63-2"
       inkscape:connector-curvature="0"
       sodipodi:nodetypes="sccccccssss" />
    <path
       style="color:#000000;fill:none;stroke:#ff1616;stroke-width:1.02926862;stroke-miterlimit:4;stroke-opacity:1;stroke-dasharray:none;marker:none;visibility:visible;display:inline;overflow:visible;enable-background:accumulate"
       d="m 6.0501985,124.93975 c 0,5.78279 2.055455,10.78168 4.4455775,14.28309 l -2.3518275,4.46691 c -0.409316,0.43177 -0.40052,1.09068 0.03125,1.5 l 3.8437495,3.65625 c 0.431771,0.40932 1.090684,0.36927 1.500001,-0.0625 l 4.22106,-2.68096 c 3.351574,2.23954 8.002526,3.89971 13.37269,3.89971 13.840722,0 25.0625,-11.22178 25.0625,-25.0625 0,-13.84072 -11.221778,-25.062501 -25.0625,-25.062501 -13.840722,0 -25.0625005,11.221781 -25.0625005,25.062501 z"
       id="path14093-1-3-0-2"
       inkscape:connector-curvature="0"
       sodipodi:nodetypes="sccccccssss" />
    <path
       style="color:#000000;fill:none;stroke:#ff1616;stroke-width:1.02926862;stroke-miterlimit:4;stroke-opacity:1;stroke-dasharray:none;marker:none;visibility:visible;display:inline;overflow:visible;enable-background:accumulate"
       d="m 13.390835,107.21789 c -4.0890505,4.08905 -6.1703765,9.07722 -6.9561715,13.24316 l -4.821576,1.49559 c -0.594739,0.0159 -1.05444004,0.48802 -1.03856304,1.08276 l 0.132582,5.3033 c 0.01588,0.59474 0.51011604,1.03235 1.10485504,1.01647 l 4.880462,1.08902 c 0.786328,3.95351 2.901132,8.41614 6.6984115,12.21342 9.786869,9.78687 25.656859,9.78687 35.443728,0 9.786868,-9.78686 9.786868,-25.65686 0,-35.44373 -9.786869,-9.786863 -25.656859,-9.786863 -35.443728,1e-5 z"
       id="path14093-1-3-08-8"
       inkscape:connector-curvature="0"
       sodipodi:nodetypes="sccccccssss" />
    <rect
       style="color:#000000;fill:none;stroke:#000000;stroke-width:2.44889069;stroke-linecap:square;stroke-linejoin:miter;stroke-miterlimit:4;stroke-opacity:1;stroke-dasharray:none;stroke-dashoffset:0;marker:none;visibility:visible;display:inline;overflow:visible;enable-background:accumulate"
       id="rect17289-2-2"
       width="41.490555"
       height="29.738899"
       x="9.421423"
       y="28.07151"
       ry="2.0656061" />
    <rect
       style="color:#000000;fill:#969696;fill-opacity:1;fill-rule:nonzero;stroke:#dcdcdc;stroke-width:2.48402952999999990;stroke-linecap:square;stroke-linejoin:miter;stroke-miterlimit:4;stroke-opacity:1;stroke-dasharray:none;stroke-dashoffset:0;marker:none;visibility:visible;display:inline;overflow:visible;enable-background:accumulate"
       id="rect17289-2"
       width="42.085896"
       height="30.165619"
       x="7.9691014"
       y="26.934433"
       ry="2.0952451" />
    <rect
       style="color:#000000;fill:url(#linearGradient17489);fill-opacity:1;fill-rule:nonzero;stroke:#000000;stroke-width:0.63505703;stroke-linecap:square;stroke-linejoin:miter;stroke-miterlimit:4;stroke-opacity:1;stroke-dasharray:none;stroke-dashoffset:0;marker:none;visibility:visible;display:inline;overflow:visible;enable-background:accumulate"
       id="rect17289"
       width="39.950863"
       height="28.635302"
       x="9.0366211"
       y="27.699591"
       ry="0" />
    <g
       id="g16610"
       transform="matrix(0.70183367,0,0,0.70183367,12.576004,5.0910671)">
      <path
         id="path14093-1"
         d="m 35.34375,1.125 -5.3125,0.03125 C 29.436325,1.16175 28.994505,1.6550747 29,2.25 L 27.84375,7.0625 C 27.74774,7.082238 27.658111,7.104165 27.5625,7.125 27.53977,7.12995 27.52271,7.151236 27.5,7.15625 27.361782,7.186774 27.231117,7.217199 27.09375,7.25 26.955513,7.283009 26.824851,7.3084561 26.6875,7.34375 26.61399,7.36264 26.510754,7.38671 26.4375,7.40625 26.39603,7.417311 26.353886,7.426231 26.3125,7.4375 26.29041,7.44351 26.27207,7.462676 26.25,7.46875 26.18882,7.485582 26.123496,7.482716 26.0625,7.5 25.98613,7.521647 25.919829,7.571397 25.84375,7.59375 25.80343,7.605593 25.758986,7.61296 25.71875,7.625 25.62603,7.652746 25.529767,7.689961 25.4375,7.71875 25.39746,7.731244 25.352456,7.737311 25.3125,7.75 25.3035,7.75285 25.29022,7.74714 25.28125,7.75 25.25971,7.75687 25.24027,7.774324 25.21875,7.78125 25.085323,7.824135 24.945344,7.8298181 24.8125,7.875 24.79063,7.88229 24.77189,7.898882 24.75,7.90625 24.72866,7.91358 24.70881,7.930116 24.6875,7.9375 24.525959,7.993475 24.378789,8.0658267 24.21875,8.125 24.17823,8.139981 24.134177,8.141065 24.09375,8.15625 24.06297,8.167814 24.03072,8.175819 24,8.1875 23.94331,8.209055 23.900245,8.259295 23.84375,8.28125 23.81336,8.29302 23.78036,8.300607 23.75,8.3125 23.70987,8.328281 23.665027,8.327767 23.625,8.34375 23.60336,8.35239 23.58411,8.366302 23.5625,8.375 23.53234,8.387141 23.49885,8.393995 23.46875,8.40625 23.272047,8.485937 23.072101,8.5388957 22.875,8.625 22.83221,8.643664 22.792702,8.668585 22.75,8.6875 22.66507,8.725117 22.584603,8.7738901 22.5,8.8125 22.380418,8.867174 22.274824,8.9435065 22.15625,9 22.07126,9.040489 21.990711,9.083584 21.90625,9.125 21.82248,9.165995 21.708407,9.208012 21.625,9.25 21.6167,9.2542 21.60207,9.24579 21.59375,9.25 21.51949,9.287483 21.448961,9.3054788 21.375,9.34375 21.36217,9.35041 21.35657,9.368323 21.34375,9.375 21.206307,9.446704 21.07474,9.5187962 20.9375,9.59375 20.80313,9.666743 20.664561,9.7368606 20.53125,9.8125 20.47955,9.84132 20.426225,9.877228 20.375,9.90625 20.35457,9.918045 20.3329,9.925642 20.3125,9.9375 c -0.01218,0.00708 -0.01909,0.024148 -0.03125,0.03125 -0.03352,0.019194 -0.06044,0.043223 -0.09375,0.0625 -0.0202,0.01192 -0.04234,0.01927 -0.0625,0.03125 -0.126069,0.07536 -0.249314,0.171799 -0.375,0.25 -0.08522,0.05272 -0.165272,0.07116 -0.25,0.125 -0.07629,0.04846 -0.143021,0.10699 -0.21875,0.15625 C 19.19219,10.65065 19.087262,10.692642 19,10.75 L 14.5625,8.34375 c -0.424562,-0.4167898 -1.08321,-0.4245614 -1.5,0 L 9.34375,12.125 c -0.4167898,0.424562 -0.3933115,1.08321 0.03125,1.5 l 2.59375,4.21875 c -0.05508,0.08361 -0.133523,0.165876 -0.1875,0.25 -0.03695,0.05754 -0.05726,0.12964 -0.09375,0.1875 -0.0038,0.006 -0.02749,-0.006 -0.03125,0 -0.04537,0.07216 -0.08044,0.14623 -0.125,0.21875 -0.123887,0.201255 -0.225437,0.420004 -0.34375,0.625 -0.01211,0.02038 -0.01918,0.04204 -0.03125,0.0625 -0.02306,0.04022 -0.03966,0.08464 -0.0625,0.125 -0.016,0.02751 -0.01534,0.0661 -0.03125,0.09375 -0.02247,0.04005 -0.04025,0.08481 -0.0625,0.125 -0.0138,0.02498 -0.04879,0.03749 -0.0625,0.0625 -0.03391,0.06176 -0.06034,0.12542 -0.09375,0.1875 -0.04448,0.08267 -0.112666,0.166778 -0.15625,0.25 -0.01539,0.02939 -0.01597,0.06429 -0.03125,0.09375 -0.034,0.06543 -0.09157,0.09048 -0.125,0.15625 -0.0041,0.0081 0.004,0.0232 0,0.03125 -0.0065,0.01259 -0.02479,0.01864 -0.03125,0.03125 -0.0041,0.0082 0.0041,0.02307 0,0.03125 -0.0062,0.01233 -0.02508,0.01891 -0.03125,0.03125 -0.03196,0.06292 -0.06222,0.123971 -0.09375,0.1875 -0.07004,0.143297 -0.120348,0.293151 -0.1875,0.4375 -0.0377,0.08104 -0.05696,0.168637 -0.09375,0.25 -0.01922,0.0425 -0.04353,0.08241 -0.0625,0.125 -0.023,0.05145 -0.039836,0.104615 -0.0625,0.15625 -0.00558,0.01266 -0.056933,0.01857 -0.0625,0.03125 -0.013154,0.03011 -0.018211,0.06358 -0.03125,0.09375 -0.01301,0.03021 -0.018365,0.0635 -0.03125,0.09375 -0.0039,0.0091 0.00389,0.02213 0,0.03125 -0.00535,0.01256 -0.025917,0.01868 -0.03125,0.03125 -0.00866,0.02048 -0.02265,0.04199 -0.03125,0.0625 -0.00364,0.0087 0.00364,0.02259 0,0.03125 -0.027587,0.06564 -0.066635,0.121316 -0.09375,0.1875 -0.00356,0.0087 0.00356,0.02252 0,0.03125 -0.024429,0.06001 -0.038554,0.127337 -0.0625,0.1875 -0.03344,0.08388 -0.061191,0.165672 -0.09375,0.25 -0.00349,0.009 0.00349,0.02224 0,0.03125 C 9.52634,22.63775 9.50489,22.64348 9.5,22.65625 9.488519,22.68623 9.480119,22.71996 9.46875,22.75 9.410828,22.903142 9.3673228,23.064713 9.3125,23.21875 c -0.02167,0.06079 -0.072536,0.126489 -0.09375,0.1875 -0.014256,0.04023 -0.017237,0.08483 -0.03125,0.125 -0.010627,0.03114 -0.020749,0.06258 -0.03125,0.09375 -0.00316,0.0094 0.00315,0.02187 0,0.03125 -0.00434,0.01289 -0.026934,0.01835 -0.03125,0.03125 -0.031057,0.09281 -0.063751,0.187954 -0.09375,0.28125 -0.00304,0.0095 0.00304,0.0217 0,0.03125 -0.00305,0.0095 0.00304,0.02174 0,0.03125 C 9.02438,24.05297 9.006814,24.07198 9,24.09375 8.951372,24.247711 8.920725,24.407253 8.875,24.5625 c -0.00286,0.0098 0.00286,0.0215 0,0.03125 C 8.837916,24.720237 8.785138,24.81018 8.75,24.9375 8.732905,24.99943 8.735381,25.062872 8.71875,25.125 8.693917,25.21805 8.648747,25.312971 8.625,25.40625 c -0.00557,0.02181 -0.025734,0.04067 -0.03125,0.0625 -0.020111,0.08089 -0.043118,0.168554 -0.0625,0.25 -0.033209,0.137843 -0.062826,0.267517 -0.09375,0.40625 -0.00222,0.0099 0.00221,0.02135 0,0.03125 -0.015667,0.07069 -0.01618,0.14783 -0.03125,0.21875 -0.00211,0.0099 0.0021,0.02133 0,0.03125 -0.010818,0.05122 -0.020745,0.104915 -0.03125,0.15625 -0.00246,0.01198 -0.028805,0.01927 -0.03125,0.03125 -0.00175,0.0086 0.00175,0.02261 0,0.03125 -0.00658,0.0312 -0.024817,0.06264 -0.03125,0.09375 l -4.84375,1.4375 c -0.5949253,0.0055 -1.0679951,0.436324 -1.0625,1.03125 L 2.4375,34.5 c 0.0055,0.594926 0.4988246,1.036746 1.09375,1.03125 l 4.8125,1.15625 c 0.052964,0.257622 0.1266763,0.49528 0.1875,0.75 0.00233,0.0098 -0.00233,0.02147 0,0.03125 0.058838,0.246039 0.1211154,0.505459 0.1875,0.75 0.00263,0.0096 -0.00263,0.0216 0,0.03125 0.00868,0.03172 0.02245,0.06208 0.03125,0.09375 0.00569,0.02155 0.025484,0.04093 0.03125,0.0625 0.011586,0.04125 0.019458,0.08383 0.03125,0.125 0.00275,0.0096 -0.00276,0.02166 0,0.03125 0.00905,0.03147 0.022076,0.06233 0.03125,0.09375 0.00279,0.0096 -0.00279,0.02168 0,0.03125 0.014763,0.05255 0.047285,0.103595 0.0625,0.15625 0.012327,0.04118 0.018716,0.08391 0.03125,0.125 0.00387,0.01311 0.027353,0.01813 0.03125,0.03125 0.00569,0.01847 -0.00573,0.04404 0,0.0625 0.0096,0.03099 0.021528,0.06279 0.03125,0.09375 0.00679,0.02158 0.024404,0.04094 0.03125,0.0625 0.00998,0.0315 0.021147,0.0623 0.03125,0.09375 0.020158,0.06272 0.010584,0.124907 0.03125,0.1875 0.030342,0.09181 0.062377,0.189905 0.09375,0.28125 0.00733,0.02134 0.023866,0.04119 0.03125,0.0625 0.096521,0.278553 0.2065097,0.538452 0.3125,0.8125 0.040978,0.105951 0.082627,0.207242 0.125,0.3125 0.021181,0.05279 0.04097,0.103632 0.0625,0.15625 0.068006,0.166427 0.1149004,0.333295 0.1875,0.5 0.050238,0.115548 0.104182,0.228806 0.15625,0.34375 0.01901,0.04188 0.04327,0.08324 0.0625,0.125 0.0253,0.05503 0.06803,0.101369 0.09375,0.15625 0.06004,0.127879 0.125368,0.248301 0.1875,0.375 0.04099,0.08377 0.08301,0.197843 0.125,0.28125 0.0042,0.0083 -0.0043,0.02293 0,0.03125 0.04465,0.08827 0.07934,0.162329 0.125,0.25 0.0042,0.0081 -0.0043,0.02316 0,0.03125 0.106879,0.204305 0.229671,0.38995 0.34375,0.59375 0.0045,0.008 -0.0045,0.02324 0,0.03125 0.01863,0.03319 0.04369,0.06058 0.0625,0.09375 0.02293,0.04067 0.03933,0.08443 0.0625,0.125 0.04416,0.07873 0.111633,0.141149 0.15625,0.21875 0.0119,0.02032 0.01929,0.0422 0.03125,0.0625 0.0044,0.0075 -0.0045,0.02377 0,0.03125 0.07107,0.119355 0.176392,0.224729 0.25,0.34375 0.01987,0.03231 0.04248,0.06153 0.0625,0.09375 0.01207,0.01945 -0.01212,0.04308 0,0.0625 0.03283,0.05253 0.06049,0.103913 0.09375,0.15625 0.0046,0.0073 -0.0047,0.02392 0,0.03125 0.0074,0.01159 0.02384,0.01967 0.03125,0.03125 0.03609,0.05647 0.08847,0.100086 0.125,0.15625 0.0046,0.0071 -0.0047,0.02413 0,0.03125 0.05207,0.08131 0.103787,0.170194 0.15625,0.25 L 9.625,49.96875 c -0.4167898,0.424562 -0.4245647,1.08321 0,1.5 l 3.78125,3.71875 c 0.424562,0.41679 1.08321,0.39331 1.5,-0.03125 L 19.125,52.5625 c 0.134057,0.08835 0.270402,0.195421 0.40625,0.28125 0.297065,0.187502 0.603165,0.357402 0.90625,0.53125 0.121768,0.07008 0.251944,0.119412 0.375,0.1875 0.02001,0.01104 0.04246,0.02027 0.0625,0.03125 0.197865,0.108642 0.361403,0.240334 0.5625,0.34375 0.06281,0.0323 0.124378,0.06196 0.1875,0.09375 0.0083,0.0042 0.02299,-0.0041 0.03125,0 0.01214,0.0061 0.0191,0.02518 0.03125,0.03125 0.01253,0.0063 0.01871,0.02502 0.03125,0.03125 0.0084,0.0042 0.02282,-0.0041 0.03125,0 0.04208,0.02121 0.08265,0.04148 0.125,0.0625 0.164145,0.08023 0.334479,0.142311 0.5,0.21875 0.0086,0.004 0.02269,-0.0039 0.03125,0 0.05113,0.02354 0.104996,0.03932 0.15625,0.0625 0.0425,0.01922 0.08241,0.04353 0.125,0.0625 0.02106,0.0094 0.04141,0.02189 0.0625,0.03125 0.02109,0.0093 0.04138,0.02198 0.0625,0.03125 0.01763,0.0078 0.04485,0.02355 0.0625,0.03125 0.02078,0.0091 0.0417,0.02225 0.0625,0.03125 0.04273,0.01855 0.08215,0.04418 0.125,0.0625 0.02143,0.0092 0.04104,0.02214 0.0625,0.03125 0.02163,0.0092 0.04084,0.02213 0.0625,0.03125 0.142139,0.05994 0.292813,0.09855 0.4375,0.15625 0.104915,0.04187 0.206884,0.08452 0.3125,0.125 0.09087,0.03484 0.189867,0.05995 0.28125,0.09375 0.112658,0.04168 0.230326,0.0849 0.34375,0.125 0.0216,0.0076 0.04086,0.0237 0.0625,0.03125 0.04923,0.01725 0.10688,0.04555 0.15625,0.0625 0.09396,0.03207 0.186361,0.06266 0.28125,0.09375 0.0094,0.0031 0.02186,-0.003 0.03125,0 0.0095,0.0031 0.02177,-0.0031 0.03125,0 0.03082,0.01001 0.06284,0.02134 0.09375,0.03125 0.02175,0.007 0.04072,0.02427 0.0625,0.03125 0.03129,0.01002 0.06241,0.02135 0.09375,0.03125 0.03126,0.0099 0.06244,0.0215 0.09375,0.03125 0.05049,0.01572 0.105624,0.01584 0.15625,0.03125 0.208055,0.06335 0.383407,0.129443 0.59375,0.1875 0.0403,0.01147 0.0848,0.02002 0.125,0.03125 0.0199,0.0054 0.04258,-0.0053 0.0625,0 0.03209,0.0086 0.06164,0.05407 0.09375,0.0625 0.02232,0.0059 0.04016,0.02543 0.0625,0.03125 0.01,0.0026 0.02125,-0.0025 0.03125,0 0.04234,0.01097 0.08257,0.02049 0.125,0.03125 0.01001,0.0025 0.02124,-0.0025 0.03125,0 0.362228,0.09133 0.725343,0.143356 1.09375,0.21875 0.02158,0.0044 0.0409,0.02689 0.0625,0.03125 0.0312,0.0066 0.06264,0.02482 0.09375,0.03125 l 1.4375,4.84375 c 0.0055,0.594926 0.436324,1.067995 1.03125,1.0625 l 5.3125,-0.03125 C 36.376176,62.08825 36.817995,61.594925 36.8125,61 l 1.15625,-4.8125 c 0.09585,-0.01971 0.185791,-0.0417 0.28125,-0.0625 0.022,-0.0048 0.04052,-0.02641 0.0625,-0.03125 0.04272,-0.0094 0.08236,-0.0216 0.125,-0.03125 0.09449,-0.02132 0.186961,-0.04007 0.28125,-0.0625 0.135507,-0.03236 0.271594,-0.02795 0.40625,-0.0625 0.02222,-0.0057 0.0403,-0.02551 0.0625,-0.03125 0.03172,-0.0082 0.06207,-0.02289 0.09375,-0.03125 0.02216,-0.0058 0.07161,-0.02535 0.09375,-0.03125 0.04148,-0.01101 0.08359,-0.02003 0.125,-0.03125 0.0414,-0.01122 0.08368,-0.01983 0.125,-0.03125 0.0096,-0.0027 0.02163,0.0027 0.03125,0 0.03167,-0.0088 0.06213,-0.02233 0.09375,-0.03125 0.06321,-0.01792 0.124489,-0.0441 0.1875,-0.0625 0.0063,-0.0018 0.02497,0.0019 0.03125,0 0.192395,-0.05618 0.372026,-0.126854 0.5625,-0.1875 0.0222,-0.0071 0.04033,-0.02413 0.0625,-0.03125 0.153532,-0.04942 0.31651,-0.07272 0.46875,-0.125 0.223289,-0.07676 0.435828,-0.167146 0.65625,-0.25 0.0527,-0.01981 0.10372,-0.04235 0.15625,-0.0625 0.02193,-0.0084 0.04059,-0.02278 0.0625,-0.03125 0.04347,-0.01682 0.08165,-0.04545 0.125,-0.0625 0.02124,-0.0083 0.04131,-0.02292 0.0625,-0.03125 0.03956,-0.01569 0.08554,-0.01537 0.125,-0.03125 0.269578,-0.10785 0.542185,-0.192582 0.8125,-0.3125 0.105152,-0.04667 0.208109,-0.108176 0.3125,-0.15625 0.0428,-0.01971 0.08234,-0.04256 0.125,-0.0625 0.02126,-0.0099 0.04127,-0.02125 0.0625,-0.03125 0.01288,-0.0061 0.01838,-0.02516 0.03125,-0.03125 0.02108,-0.01 0.04145,-0.02122 0.0625,-0.03125 0.08603,-0.041 0.164513,-0.08305 0.25,-0.125 0.09404,-0.04614 0.219125,-0.07772 0.3125,-0.125 0.07559,-0.03824 0.143599,-0.05477 0.21875,-0.09375 0.0064,-0.0033 0.02484,0.0034 0.03125,0 0.138665,-0.07222 0.269109,-0.175272 0.40625,-0.25 0.07492,-0.04091 0.143914,-0.08311 0.21875,-0.125 0.111867,-0.0624 0.232939,-0.123444 0.34375,-0.1875 0.02081,-0.01179 0.04177,-0.01942 0.0625,-0.03125 0.01263,-0.0073 0.01863,-0.02389 0.03125,-0.03125 0.03292,-0.0192 0.0609,-0.04314 0.09375,-0.0625 0.02014,-0.01188 0.0424,-0.01931 0.0625,-0.03125 0.02011,-0.01194 0.04242,-0.01926 0.0625,-0.03125 0.186739,-0.112371 0.376658,-0.225132 0.5625,-0.34375 0.07629,-0.04846 0.143021,-0.10699 0.21875,-0.15625 0.08906,-0.0569 0.193988,-0.09889 0.28125,-0.15625 l 4.4375,2.40625 c 0.424562,0.41679 1.08321,0.424595 1.5,0 L 56.46875,51.125 c 0.41679,-0.424562 0.39331,-1.08321 -0.03125,-1.5 l -2.59375,-4.21875 c 0.05461,-0.08287 0.133845,-0.16644 0.1875,-0.25 C 54.06461,45.10426 54.09207,45.052182 54.125,45 c 0.149361,-0.236417 0.264654,-0.477042 0.40625,-0.71875 0.03057,-0.0521 0.06354,-0.103912 0.09375,-0.15625 0.01158,-0.02007 0.01971,-0.0424 0.03125,-0.0625 0.02307,-0.03911 0.0396,-0.0856 0.0625,-0.125 0.04066,-0.07202 0.08503,-0.146287 0.125,-0.21875 0.05684,-0.102828 0.132071,-0.208789 0.1875,-0.3125 0.01109,-0.02031 0.0202,-0.04212 0.03125,-0.0625 0.03274,-0.06179 0.06156,-0.125493 0.09375,-0.1875 C 55.18808,43.095 55.21866,43.061551 55.25,43 c 0.0104,-0.02045 0.02091,-0.04202 0.03125,-0.0625 0.0063,-0.01251 0.02496,-0.01874 0.03125,-0.03125 0.01059,-0.02103 0.02072,-0.04144 0.03125,-0.0625 0.03085,-0.06169 0.06339,-0.125518 0.09375,-0.1875 0.01021,-0.02058 0.02108,-0.04185 0.03125,-0.0625 0.05377,-0.110658 0.07282,-0.232181 0.125,-0.34375 0.0057,-0.01221 0.02555,-0.01903 0.03125,-0.03125 0.01394,-0.02998 0.01743,-0.06373 0.03125,-0.09375 0.02378,-0.0516 0.03906,-0.104465 0.0625,-0.15625 0.01922,-0.0425 0.04353,-0.08241 0.0625,-0.125 0.0095,-0.02129 0.02182,-0.04118 0.03125,-0.0625 0.0095,-0.02144 0.02179,-0.04102 0.03125,-0.0625 0.0055,-0.01245 0.02581,-0.01879 0.03125,-0.03125 0.0039,-0.0088 0.0274,-0.02242 0.03125,-0.03125 0.008,-0.01847 -0.008,-0.04401 0,-0.0625 0.0058,-0.01325 0.02552,-0.01799 0.03125,-0.03125 0.0053,-0.01219 0.02601,-0.01905 0.03125,-0.03125 0.0039,-0.0089 -0.0038,-0.02232 0,-0.03125 0.0039,-0.009 -0.0038,-0.0222 0,-0.03125 0.0038,-0.0089 -0.0038,-0.02229 0,-0.03125 0.0057,-0.0133 0.02561,-0.01794 0.03125,-0.03125 0.0092,-0.02163 0.02213,-0.04084 0.03125,-0.0625 0.06004,-0.142369 0.09845,-0.292575 0.15625,-0.4375 0.03244,-0.0815 0.0622,-0.168225 0.09375,-0.25 0.0032,-0.0084 -0.0032,-0.02283 0,-0.03125 0.0049,-0.01286 0.02632,-0.01837 0.03125,-0.03125 0.0083,-0.0216 0.02303,-0.04088 0.03125,-0.0625 0.02629,-0.06921 0.0368,-0.14924 0.0625,-0.21875 0.01143,-0.03096 0.01994,-0.06273 0.03125,-0.09375 0.01479,-0.03983 0.0167,-0.08521 0.03125,-0.125 0.0045,-0.01254 0.02677,-0.0187 0.03125,-0.03125 0.0066,-0.01856 -0.0066,-0.0439 0,-0.0625 0.01096,-0.03031 0.02043,-0.06347 0.03125,-0.09375 0.0046,-0.01304 0.05796,-0.01821 0.0625,-0.03125 0.01087,-0.03123 0.0205,-0.06246 0.03125,-0.09375 0.0031,-0.0091 -0.0031,-0.02211 0,-0.03125 0.02463,-0.07195 0.03851,-0.146499 0.0625,-0.21875 0.0073,-0.02182 0.02405,-0.04066 0.03125,-0.0625 0.02059,-0.06233 0.04239,-0.124952 0.0625,-0.1875 0.0061,-0.0189 -0.006,-0.04358 0,-0.0625 0.0069,-0.0218 0.02438,-0.04067 0.03125,-0.0625 0.003,-0.0096 -0.0029,-0.02167 0,-0.03125 0.02294,-0.07312 0.04025,-0.145458 0.0625,-0.21875 0.02197,-0.07285 0.04112,-0.145387 0.0625,-0.21875 0.03708,-0.126487 0.08986,-0.21643 0.125,-0.34375 0.0026,-0.0095 -0.0026,-0.0217 0,-0.03125 0.01684,-0.06177 0.01483,-0.125386 0.03125,-0.1875 0.009,-0.03249 0.05367,-0.06132 0.0625,-0.09375 0.02165,-0.08251 0.04168,-0.167155 0.0625,-0.25 0.0048,-0.01924 -0.0048,-0.04323 0,-0.0625 0.05194,-0.200835 0.11027,-0.395897 0.15625,-0.59375 0.02933,-0.131587 0.03524,-0.273878 0.0625,-0.40625 0.0047,-0.02202 0.02658,-0.04052 0.03125,-0.0625 0.0087,-0.04081 0.02284,-0.08434 0.03125,-0.125 l 4.84375,-1.4375 c 0.594926,-0.0055 1.067995,-0.436325 1.0625,-1.03125 L 63.375,28.75 c -0.0055,-0.594926 -0.498824,-1.036745 -1.09375,-1.03125 l -4.8125,-1.15625 c -0.01971,-0.09588 -0.0417,-0.185766 -0.0625,-0.28125 -0.0048,-0.02199 -0.02638,-0.04052 -0.03125,-0.0625 -0.0094,-0.0427 -0.02161,-0.08237 -0.03125,-0.125 -0.02158,-0.09534 -0.03984,-0.186323 -0.0625,-0.28125 -0.03075,-0.12928 -0.06091,-0.24612 -0.09375,-0.375 -0.0025,-0.0097 0.0025,-0.0215 0,-0.03125 -0.01889,-0.07353 -0.04296,-0.176732 -0.0625,-0.25 -0.01111,-0.04164 -0.01994,-0.08344 -0.03125,-0.125 -0.01031,-0.03999 -0.02068,-0.08494 -0.03125,-0.125 -0.0061,-0.02204 -0.02507,-0.04048 -0.03125,-0.0625 -0.0025,-0.0092 0.0025,-0.02201 0,-0.03125 -0.02055,-0.07285 -0.04131,-0.146164 -0.0625,-0.21875 -0.006,-0.02161 -0.02514,-0.04087 -0.03125,-0.0625 -0.0026,-0.0089 0.0027,-0.02239 0,-0.03125 -0.01288,-0.04346 -0.04939,-0.08164 -0.0625,-0.125 -0.02181,-0.07234 -0.04003,-0.14657 -0.0625,-0.21875 -0.0029,-0.0094 0.003,-0.02183 0,-0.03125 C 56.8031,24.0939 56.79084,24.06239 56.78125,24.03125 56.77123,23.99976 56.76014,23.96893 56.75,23.9375 56.72957,23.87408 56.73959,23.813033 56.71875,23.75 56.69549,23.67964 56.68011,23.60134 56.65625,23.53125 56.64895,23.50965 56.6324,23.49034 56.625,23.46875 56.5844,23.350977 56.511046,23.241981 56.46875,23.125 56.45776,23.09407 56.44864,23.0622 56.4375,23.03125 56.42608,22.99998 56.41779,22.96871 56.40625,22.9375 c -0.04286,-0.115926 -0.08048,-0.228629 -0.125,-0.34375 -0.0035,-0.009 0.0035,-0.02228 0,-0.03125 C 56.27295,22.54112 56.25832,22.52137 56.25,22.5 c -0.0048,-0.01236 -0.02639,-0.0189 -0.03125,-0.03125 -0.0037,-0.0094 0.0037,-0.02187 0,-0.03125 -0.0036,-0.0091 0.0037,-0.02212 0,-0.03125 -0.01686,-0.04257 -0.04541,-0.08255 -0.0625,-0.125 -0.0089,-0.02221 -0.02228,-0.04028 -0.03125,-0.0625 -0.0036,-0.0089 0.0037,-0.02234 0,-0.03125 -0.09642,-0.238013 -0.175421,-0.480192 -0.28125,-0.71875 -0.03734,-0.08413 -0.08676,-0.166359 -0.125,-0.25 C 55.69373,21.16418 55.6504,21.116857 55.625,21.0625 55.59518,20.99852 55.56159,20.938688 55.53125,20.875 c -0.03949,-0.08285 -0.08435,-0.16716 -0.125,-0.25 -0.04142,-0.08447 -0.08266,-0.197318 -0.125,-0.28125 -0.0042,-0.0083 0.0042,-0.02295 0,-0.03125 -0.04448,-0.08783 -0.07921,-0.16222 -0.125,-0.25 C 55.0839,19.923587 55.012367,19.793634 54.9375,19.65625 54.86255,19.51901 54.796981,19.386954 54.71875,19.25 54.68893,19.19753 54.6552,19.145984 54.625,19.09375 c -0.01179,-0.02081 -0.01942,-0.04177 -0.03125,-0.0625 -0.0035,-0.0061 -0.0277,0.006 -0.03125,0 -0.0044,-0.0075 0.0044,-0.02374 0,-0.03125 -0.01179,-0.0202 -0.0194,-0.04233 -0.03125,-0.0625 -0.01924,-0.03339 -0.04318,-0.06057 -0.0625,-0.09375 -0.01194,-0.0201 -0.01926,-0.04243 -0.03125,-0.0625 -0.0072,-0.01199 -0.02401,-0.01926 -0.03125,-0.03125 -0.02311,-0.03825 -0.03913,-0.08679 -0.0625,-0.125 -0.08707,-0.143342 -0.159786,-0.264283 -0.25,-0.40625 C 54.04529,18.14246 53.98676,18.075729 53.9375,18 53.8806,17.91094 53.838608,17.806012 53.78125,17.71875 l 2.40625,-4.4375 c 0.41679,-0.424562 0.424595,-1.08321 0,-1.5 L 52.40625,8.0625 c -0.424562,-0.4167898 -1.08321,-0.3933114 -1.5,0.03125 L 46.6875,10.6875 C 46.60389,10.63242 46.521624,10.553977 46.4375,10.5 46.105148,10.28659 45.749168,10.104163 45.40625,9.90625 45.38618,9.894664 45.36385,9.886532 45.34375,9.875 45.30464,9.85193 45.25815,9.835407 45.21875,9.8125 45.19034,9.796418 45.15348,9.797223 45.125,9.78125 45.07974,9.755866 45.045435,9.712611 45,9.6875 44.97943,9.676133 44.95811,9.667561 44.9375,9.65625 44.8551,9.61101 44.770463,9.5443391 44.6875,9.5 44.66719,9.488911 44.64538,9.479795 44.625,9.46875 44.56267,9.435662 44.500146,9.407576 44.4375,9.375 44.4292,9.37071 44.41451,9.37929 44.40625,9.375 44.3521,9.346969 44.335417,9.308808 44.28125,9.28125 44.2608,9.270853 44.23923,9.260337 44.21875,9.25 44.20616,9.24353 44.20011,9.225207 44.1875,9.21875 44.10538,9.177399 44.020138,9.1342221 43.9375,9.09375 43.91692,9.083537 43.89565,9.072667 43.875,9.0625 43.82515,9.038258 43.768784,9.023921 43.71875,9 43.566027,8.92716 43.403883,8.8820807 43.25,8.8125 43.2075,8.793282 43.16759,8.768969 43.125,8.75 43.0432,8.713434 42.957264,8.660714 42.875,8.625 42.84446,8.611739 42.81186,8.606893 42.78125,8.59375 42.74713,8.579101 42.72169,8.545753 42.6875,8.53125 42.66587,8.52208 42.64666,8.509113 42.625,8.5 42.403255,8.4064882 42.165424,8.3380111 41.9375,8.25 41.9283,8.24646 41.91542,8.2535354 41.90625,8.25 41.89391,8.24525 41.88735,8.223476 41.875,8.21875 41.751858,8.171603 41.624077,8.1390046 41.5,8.09375 41.47893,8.08592 41.45856,8.070258 41.4375,8.0625 41.39717,8.047919 41.352926,8.04563 41.3125,8.03125 41.27207,8.01687 41.228025,8.014179 41.1875,8 41.17527,7.99571 41.16849,7.941774 41.15625,7.9375 41.12517,7.926672 41.09362,7.916952 41.0625,7.90625 c -0.0093,-0.00321 -0.02191,0.0032 -0.03125,0 C 40.96864,7.884819 40.906586,7.864699 40.84375,7.84375 40.81308,7.833487 40.78072,7.822647 40.75,7.8125 40.70949,7.799118 40.665605,7.794432 40.625,7.78125 40.385769,7.703938 40.148609,7.6327656 39.90625,7.5625 39.804086,7.532816 39.727466,7.528361 39.625,7.5 39.61219,7.49645 39.60656,7.472275 39.59375,7.46875 39.53181,7.451655 39.468378,7.454131 39.40625,7.4375 39.37376,7.42851 39.34493,7.383832 39.3125,7.375 39.25021,7.358808 39.187632,7.359511 39.125,7.34375 39.10261,7.33804 39.08492,7.31815 39.0625,7.3125 39.04246,7.30745 39.02006,7.3175 39,7.3125 38.797558,7.261994 38.610638,7.2018088 38.40625,7.15625 38.33553,7.140486 38.25845,7.140166 38.1875,7.125 38.16772,7.12077 38.14479,7.12918 38.125,7.125 38.07428,7.113816 38.019242,7.104546 37.96875,7.09375 37.9154,7.082343 37.865592,7.042227 37.8125,7.03125 L 36.375,2.1875 C 36.369504,1.5925747 35.938676,1.119505 35.34375,1.125 z m -2.4375,14.3125 c 8.946556,0 16.1875,7.240944 16.1875,16.1875 0,8.946556 -7.240944,16.1875 -16.1875,16.1875 -8.946556,0 -16.1875,-7.240944 -16.1875,-16.1875 0,-8.946556 7.240944,-16.1875 16.1875,-16.1875 z"
         style="color:#000000;fill:url(#linearGradient16619);fill-opacity:1;stroke:#001616;stroke-width:1.02926862;stroke-miterlimit:4;stroke-opacity:1;stroke-dasharray:none;marker:none;visibility:visible;display:inline;overflow:visible;enable-background:accumulate"
         inkscape:connector-curvature="0" />
      <path
         transform="translate(-3.6392059,0.71590996)"
         d="m 52.545456,30.90909 c 0,8.836556 -7.163444,16 -16,16 -8.836556,0 -16,-7.163444 -16,-16 0,-8.836556 7.163444,-16 16,-16 8.836556,0 16,7.163444 16,16 z"
         sodipodi:ry="16"
         sodipodi:rx="16"
         sodipodi:cy="30.90909"
         sodipodi:cx="36.545456"
         id="path14808"
         style="color:#000000;fill:#ffffff;fill-opacity:1;fill-rule:nonzero;stroke:#001616;stroke-width:1;stroke-linecap:square;stroke-linejoin:miter;stroke-miterlimit:4;stroke-opacity:1;stroke-dasharray:none;stroke-dashoffset:0;marker:none;visibility:visible;display:inline;overflow:visible;enable-background:accumulate"
         sodipodi:type="arc" />
      <g
         transform="translate(-21.348125,-50.374082)"
         id="g14670">
        <path
           style="fill:#000000;fill-opacity:1;stroke:#000000;stroke-width:0.50414705;stroke-linecap:butt;stroke-linejoin:miter;stroke-miterlimit:4;stroke-opacity:1;stroke-dasharray:none"
           d="m 26.506448,81.999082 27.747926,-2.747926 27.747928,2.747926 -27.747928,2.747927 z"
           id="path3765-14"
           inkscape:connector-curvature="0" />
        <path
           style="fill:#000000;fill-opacity:1;stroke:#000000;stroke-width:0.50414705;stroke-linecap:butt;stroke-linejoin:miter;stroke-miterlimit:4;stroke-opacity:1;stroke-dasharray:none"
           d="M 54.254374,109.74701 51.506449,81.999083 54.254374,54.251154 57.002301,81.999083 z"
           id="path3765-1-3"
           inkscape:connector-curvature="0" />
        <path
           style="fill:#000000;fill-opacity:1;stroke:#000000;stroke-width:0.37858936;stroke-linecap:butt;stroke-linejoin:miter;stroke-miterlimit:4;stroke-opacity:1;stroke-dasharray:none"
           d="M 39.51967,96.733789 55.713029,83.458738 68.988081,67.265378 52.79472,80.540429 z"
           id="path3765-1-7-4-1"
           inkscape:connector-curvature="0" />
        <path
           style="fill:#000000;fill-opacity:1;stroke:#000000;stroke-width:0.37858936;stroke-linecap:butt;stroke-linejoin:miter;stroke-miterlimit:4;stroke-opacity:1;stroke-dasharray:none"
           d="M 68.988081,96.733789 52.794722,83.458738 39.51967,67.265378 55.713031,80.540429 z"
           id="path3765-1-7-4-9"
           inkscape:connector-curvature="0" />
      </g>
    </g>
  </g>
</svg>
