<?xml version="1.0" encoding="UTF-8" standalone="no"?>
<!-- Created with Inkscape (http://www.inkscape.org/) -->

<svg
   xmlns:dc="http://purl.org/dc/elements/1.1/"
   xmlns:cc="http://creativecommons.org/ns#"
   xmlns:rdf="http://www.w3.org/1999/02/22-rdf-syntax-ns#"
   xmlns:svg="http://www.w3.org/2000/svg"
   xmlns="http://www.w3.org/2000/svg"
   xmlns:xlink="http://www.w3.org/1999/xlink"
   xmlns:sodipodi="http://sodipodi.sourceforge.net/DTD/sodipodi-0.dtd"
   xmlns:inkscape="http://www.inkscape.org/namespaces/inkscape"
   width="64px"
   height="64px"
   id="svg2985"
   version="1.1"
   inkscape:version="0.48.4 r9939"
   sodipodi:docname="rxcontrol.svg">
  <defs
     id="defs2987">
    <linearGradient
       id="linearGradient16165">
      <stop
         id="stop16167"
         offset="0"
         style="stop-color:#ff0900;stop-opacity:1;" />
      <stop
         id="stop16169"
         offset="1"
         style="stop-color:#ffffff;stop-opacity:1;" />
    </linearGradient>
    <linearGradient
       id="linearGradient5874">
      <stop
         style="stop-color:#969696;stop-opacity:1;"
         offset="0"
         id="stop5876" />
      <stop
         style="stop-color:#ffffff;stop-opacity:1;"
         offset="1"
         id="stop5878" />
    </linearGradient>
    <linearGradient
       inkscape:collect="always"
       xlink:href="#linearGradient5874"
       id="linearGradient5880"
       x1="27.527502"
       y1="50.365063"
       x2="17.722307"
       y2="11.923508"
       gradientUnits="userSpaceOnUse" />
    <linearGradient
       inkscape:collect="always"
       xlink:href="#linearGradient5874-2"
       id="linearGradient5880-1"
       x1="7.9171114"
       y1="21.533897"
       x2="37.332699"
       y2="35.949482"
       gradientUnits="userSpaceOnUse" />
    <linearGradient
       id="linearGradient5874-2">
      <stop
         style="stop-color:#969696;stop-opacity:1;"
         offset="0"
         id="stop5876-3" />
      <stop
         style="stop-color:#ffffff;stop-opacity:1;"
         offset="1"
         id="stop5878-3" />
    </linearGradient>
    <linearGradient
       inkscape:collect="always"
       xlink:href="#linearGradient14310"
       id="linearGradient14751"
       gradientUnits="userSpaceOnUse"
       x1="31.944141"
       y1="43.710094"
       x2="31.554195"
       y2="6.1691561"
       gradientTransform="matrix(0.9998477,0.01745241,-0.01745241,0.9998477,0.55694413,-0.56947661)" />
    <linearGradient
       id="linearGradient14310">
      <stop
         style="stop-color:#969696;stop-opacity:1;"
         offset="0"
         id="stop14312" />
      <stop
         style="stop-color:#ffffff;stop-opacity:1;"
         offset="1"
         id="stop14314" />
    </linearGradient>
    <linearGradient
       y2="6.1691561"
       x2="31.554195"
       y1="43.710094"
       x1="31.944141"
       gradientTransform="matrix(0.9998477,0.01745241,-0.01745241,0.9998477,-63.715783,-52.569477)"
       gradientUnits="userSpaceOnUse"
       id="linearGradient15428-8"
       xlink:href="#linearGradient14310-9"
       inkscape:collect="always" />
    <linearGradient
       id="linearGradient14310-9">
      <stop
         style="stop-color:#969696;stop-opacity:1;"
         offset="0"
         id="stop14312-8" />
      <stop
         style="stop-color:#ffffff;stop-opacity:1;"
         offset="1"
         id="stop14314-9" />
    </linearGradient>
    <linearGradient
       id="linearGradient4250">
      <stop
         style="stop-color:#646464;stop-opacity:1;"
         offset="0"
         id="stop4252" />
      <stop
         style="stop-color:#ffffff;stop-opacity:1;"
         offset="1"
         id="stop4254" />
    </linearGradient>
    <linearGradient
       id="linearGradient15560">
      <stop
         style="stop-color:#646464;stop-opacity:1;"
         offset="0"
         id="stop15562" />
      <stop
         style="stop-color:#ffffff;stop-opacity:1;"
         offset="1"
         id="stop15564" />
    </linearGradient>
    <linearGradient
       id="linearGradient15567">
      <stop
         style="stop-color:#646464;stop-opacity:1;"
         offset="0"
         id="stop15569" />
      <stop
         style="stop-color:#ffffff;stop-opacity:1;"
         offset="1"
         id="stop15571" />
    </linearGradient>
    <linearGradient
       inkscape:collect="always"
       xlink:href="#linearGradient14310"
       id="linearGradient15643"
       gradientUnits="userSpaceOnUse"
       gradientTransform="matrix(0.70143223,0.01224355,-0.01224355,0.70143223,9.7284228,-10.280204)"
       x1="31.944141"
       y1="43.710094"
       x2="31.554195"
       y2="6.1691561" />
    <linearGradient
       inkscape:collect="always"
       xlink:href="#linearGradient14310"
       id="linearGradient15661"
       gradientUnits="userSpaceOnUse"
       gradientTransform="matrix(0.70143223,0.01224355,-0.01224355,0.70143223,41.146421,-26.639826)"
       x1="31.944141"
       y1="43.710094"
       x2="31.554195"
       y2="6.1691561" />
    <linearGradient
       id="linearGradient14310-9-7">
      <stop
         style="stop-color:#969696;stop-opacity:1;"
         offset="0"
         id="stop14312-8-3" />
      <stop
         style="stop-color:#ffffff;stop-opacity:1;"
         offset="1"
         id="stop14314-9-0" />
    </linearGradient>
    <linearGradient
       inkscape:collect="always"
       xlink:href="#linearGradient14310-9"
       id="linearGradient15805"
       gradientUnits="userSpaceOnUse"
       gradientTransform="matrix(0.46059583,0.00803973,-0.00803973,0.46059583,34.972829,31.62788)"
       x1="31.944141"
       y1="43.710094"
       x2="31.554195"
       y2="6.1691561" />
    <linearGradient
       inkscape:collect="always"
       xlink:href="#linearGradient14310"
       id="linearGradient15807"
       gradientUnits="userSpaceOnUse"
       gradientTransform="matrix(0.70143223,0.01224355,-0.01224355,0.70143223,41.146421,-26.639826)"
       x1="31.944141"
       y1="43.710094"
       x2="31.554195"
       y2="6.1691561" />
    <linearGradient
       id="linearGradient4250-3">
      <stop
         style="stop-color:#646464;stop-opacity:1;"
         offset="0"
         id="stop4252-3" />
      <stop
         style="stop-color:#ffffff;stop-opacity:1;"
         offset="1"
         id="stop4254-6" />
    </linearGradient>
    <linearGradient
       id="linearGradient15858">
      <stop
         style="stop-color:#646464;stop-opacity:1;"
         offset="0"
         id="stop15860" />
      <stop
         style="stop-color:#ffffff;stop-opacity:1;"
         offset="1"
         id="stop15862" />
    </linearGradient>
    <linearGradient
       id="linearGradient15865">
      <stop
         style="stop-color:#646464;stop-opacity:1;"
         offset="0"
         id="stop15867" />
      <stop
         style="stop-color:#ffffff;stop-opacity:1;"
         offset="1"
         id="stop15869" />
    </linearGradient>
    <radialGradient
       inkscape:collect="always"
       xlink:href="#linearGradient14310-9-7-5"
       id="radialGradient16030-0"
       cx="49.875057"
       cy="46.458904"
       fx="49.875057"
       fy="46.458904"
       r="14.287485"
       gradientTransform="matrix(1,0,0,1.0000071,0,-3.2839601e-4)"
       gradientUnits="userSpaceOnUse" />
    <linearGradient
       id="linearGradient14310-9-7-5">
      <stop
         style="stop-color:#969696;stop-opacity:1;"
         offset="0"
         id="stop14312-8-3-4" />
      <stop
         style="stop-color:#ffffff;stop-opacity:1;"
         offset="1"
         id="stop14314-9-0-9" />
    </linearGradient>
    <radialGradient
       inkscape:collect="always"
       xlink:href="#linearGradient14310-9-7-5"
       id="radialGradient16141"
       gradientUnits="userSpaceOnUse"
       gradientTransform="matrix(1.1709689,0,0,1.1709772,92.604682,-74.198821)"
       cx="49.875057"
       cy="46.458904"
       fx="49.875057"
       fy="46.458904"
       r="14.287485" />
    <radialGradient
       inkscape:collect="always"
       xlink:href="#linearGradient14310-9-7"
       id="radialGradient16150"
       gradientUnits="userSpaceOnUse"
       gradientTransform="matrix(1,0,0,1.0000071,73.303322,-61.133522)"
       cx="49.875057"
       cy="46.458904"
       fx="49.875057"
       fy="46.458904"
       r="14.287485" />
    <linearGradient
       inkscape:collect="always"
       xlink:href="#linearGradient16165"
       id="linearGradient16153"
       gradientUnits="userSpaceOnUse"
       gradientTransform="matrix(1.2468028,0,0,1.4172988,208.31574,-36.433944)"
       x1="-102.12978"
       y1="-2.2162097"
       x2="-94.622604"
       y2="17.195986" />
    <linearGradient
       inkscape:collect="always"
       xlink:href="#linearGradient4250-3"
       id="linearGradient16158"
       gradientUnits="userSpaceOnUse"
       gradientTransform="matrix(1.2468028,0,0,1.4172988,208.31574,-36.433944)"
       x1="-76.608047"
       y1="12.982762"
       x2="-78.587471"
       y2="9.5798111" />
    <radialGradient
       inkscape:collect="always"
       xlink:href="#linearGradient4250-3"
       id="radialGradient16161"
       gradientUnits="userSpaceOnUse"
       gradientTransform="matrix(-1.1234439,-0.19127714,0.0842776,-0.63962845,13.563938,-33.770576)"
       spreadMethod="pad"
       cx="-81.847252"
       cy="8.9422226"
       fx="-81.847252"
       fy="8.9422226"
       r="18.992901" />
    <radialGradient
       inkscape:collect="always"
       xlink:href="#linearGradient14310-9-7-5-8"
       id="radialGradient16141-3"
       gradientUnits="userSpaceOnUse"
       gradientTransform="matrix(1.1709689,0,0,1.1709772,84.472592,-112.83297)"
       cx="49.875057"
       cy="46.458904"
       fx="49.875057"
       fy="46.458904"
       r="14.287485" />
    <linearGradient
       id="linearGradient14310-9-7-5-8">
      <stop
         style="stop-color:#00ff00;stop-opacity:1;"
         offset="0"
         id="stop14312-8-3-4-2" />
      <stop
         style="stop-color:#ffffff;stop-opacity:1;"
         offset="1"
         id="stop14314-9-0-9-3" />
    </linearGradient>
    <radialGradient
       inkscape:collect="always"
       xlink:href="#linearGradient14310-9-7-4"
       id="radialGradient16150-9"
       gradientUnits="userSpaceOnUse"
       gradientTransform="matrix(1,0,0,1.0000071,-33.605769,-20.406249)"
       cx="49.875057"
       cy="46.458904"
       fx="49.875057"
       fy="46.458904"
       r="14.287485" />
    <linearGradient
       id="linearGradient14310-9-7-4">
      <stop
         style="stop-color:#0000ff;stop-opacity:1;"
         offset="0"
         id="stop14312-8-3-8" />
      <stop
         style="stop-color:#ffffff;stop-opacity:1;"
         offset="1"
         id="stop14314-9-0-5" />
    </linearGradient>
    <radialGradient
       r="14.287485"
       fy="46.458904"
       fx="49.875057"
       cy="46.458904"
       cx="49.875057"
       gradientTransform="matrix(1,0,0,1.0000071,65.171232,-99.767673)"
       gradientUnits="userSpaceOnUse"
       id="radialGradient16471"
       xlink:href="#linearGradient14310-9-7-4"
       inkscape:collect="always" />
  </defs>
  <sodipodi:namedview
     id="base"
     pagecolor="#ffffff"
     bordercolor="#666666"
     borderopacity="1.0"
     inkscape:pageopacity="0.0"
     inkscape:pageshadow="2"
     inkscape:zoom="2.75"
     inkscape:cx="63.408417"
     inkscape:cy="50.565469"
     inkscape:current-layer="layer1"
     showgrid="true"
     inkscape:document-units="px"
     inkscape:grid-bbox="true"
     inkscape:snap-global="true"
     inkscape:window-width="1440"
     inkscape:window-height="878"
     inkscape:window-x="1272"
     inkscape:window-y="-8"
     inkscape:window-maximized="1"
     inkscape:snap-grids="false">
    <inkscape:grid
       type="xygrid"
       id="grid2993"
       empspacing="5"
       visible="true"
       enabled="true"
       snapvisiblegridlinesonly="true" />
  </sodipodi:namedview>
  <metadata
     id="metadata2990">
    <rdf:RDF>
      <cc:Work
         rdf:about="">
        <dc:format>image/svg+xml</dc:format>
        <dc:type
           rdf:resource="http://purl.org/dc/dcmitype/StillImage" />
        <dc:title />
      </cc:Work>
    </rdf:RDF>
  </metadata>
  <g
     id="layer1"
     inkscape:label="Layer 1"
     inkscape:groupmode="layer">
    <g
       id="g15665"
       transform="matrix(1.3843939,0,0,1.3843939,-56.721804,37.676133)">
      <path
         id="path14093-1"
         d="m 65.550724,-25.451083 -3.726926,0.02192 c -0.417363,0.0039 -0.727317,0.349944 -0.723462,0.767308 l -0.811155,3.376157 c -0.06735,0.01385 -0.130233,0.02923 -0.197308,0.04385 -0.01595,0.0034 -0.02791,0.01841 -0.04385,0.02192 -0.09697,0.02141 -0.188632,0.04276 -0.285,0.06577 -0.09698,0.02316 -0.188643,0.04101 -0.285,0.06577 -0.05157,0.01325 -0.123995,0.03014 -0.175385,0.04385 -0.02909,0.0078 -0.05866,0.01402 -0.08769,0.02192 -0.0155,0.0042 -0.02836,0.01766 -0.04385,0.02192 -0.04292,0.01181 -0.08875,0.0098 -0.131538,0.02192 -0.05358,0.01519 -0.10009,0.05009 -0.153462,0.06577 -0.02829,0.0083 -0.05946,0.01348 -0.08769,0.02192 -0.06505,0.01947 -0.132579,0.04557 -0.197308,0.06577 -0.02809,0.0088 -0.05966,0.01302 -0.08769,0.02192 -0.0063,0.002 -0.01563,-0.002 -0.02192,0 -0.01511,0.0048 -0.02875,0.01706 -0.04385,0.02192 -0.0936,0.03009 -0.191805,0.03407 -0.285,0.06577 -0.01534,0.0051 -0.02849,0.01675 -0.04385,0.02192 -0.01497,0.0051 -0.0289,0.01675 -0.04385,0.02192 -0.113328,0.03927 -0.216573,0.09003 -0.328847,0.131538 -0.02843,0.01051 -0.05933,0.01127 -0.08769,0.02192 -0.02159,0.0081 -0.04422,0.01373 -0.06577,0.02192 -0.03977,0.01512 -0.06998,0.05036 -0.109615,0.06577 -0.02132,0.0083 -0.04447,0.01358 -0.06577,0.02192 -0.02815,0.01107 -0.05961,0.01071 -0.08769,0.02192 -0.01518,0.006 -0.02869,0.01582 -0.04385,0.02192 -0.02116,0.0085 -0.04465,0.01333 -0.06577,0.02192 -0.137995,0.05591 -0.278265,0.09306 -0.416539,0.153462 -0.03002,0.01309 -0.05774,0.03058 -0.08769,0.04385 -0.05958,0.02639 -0.116033,0.06061 -0.175385,0.08769 -0.08389,0.03835 -0.15797,0.09191 -0.241154,0.131539 -0.05962,0.0284 -0.116132,0.05863 -0.175385,0.08769 -0.05877,0.02876 -0.138795,0.05823 -0.197308,0.08769 -0.0058,0.0029 -0.01609,-0.0029 -0.02192,0 -0.0521,0.02629 -0.101575,0.03892 -0.153462,0.06577 -0.009,0.0047 -0.01293,0.01724 -0.02192,0.02192 -0.09642,0.0503 -0.188721,0.100879 -0.285,0.153462 -0.09427,0.0512 -0.191477,0.100397 -0.285,0.153461 -0.03627,0.02022 -0.07368,0.04541 -0.109616,0.06577 -0.01433,0.0083 -0.02954,0.0136 -0.04385,0.02192 -0.0085,0.005 -0.01339,0.01694 -0.02192,0.02192 -0.02352,0.01346 -0.0424,0.03032 -0.06577,0.04385 -0.01417,0.0084 -0.0297,0.01352 -0.04385,0.02192 -0.08844,0.05287 -0.174904,0.120524 -0.263078,0.175385 -0.05978,0.03698 -0.115944,0.04992 -0.175384,0.08769 -0.05352,0.034 -0.100335,0.07506 -0.153462,0.109616 -0.06248,0.03992 -0.13609,0.06937 -0.197308,0.109615 l -3.113079,-1.688078 c -0.297846,-0.292395 -0.759914,-0.297847 -1.052308,0 l -2.608841,2.652745 c -0.292394,0.297846 -0.275923,0.759914 0.02192,1.052308 l 1.819617,2.959618 c -0.03864,0.05866 -0.09367,0.116369 -0.131538,0.175385 -0.02592,0.04037 -0.04017,0.09095 -0.06577,0.131538 -0.0027,0.0042 -0.01928,-0.0042 -0.02192,0 -0.03183,0.05062 -0.05643,0.102587 -0.08769,0.153462 -0.08691,0.141188 -0.158153,0.294649 -0.241155,0.438462 -0.0085,0.0143 -0.01346,0.02949 -0.02192,0.04385 -0.01618,0.02822 -0.02782,0.05938 -0.04385,0.08769 -0.01123,0.0193 -0.01076,0.04637 -0.02192,0.06577 -0.01576,0.0281 -0.02824,0.0595 -0.04385,0.08769 -0.0097,0.01753 -0.03423,0.0263 -0.04385,0.04385 -0.02379,0.04333 -0.04233,0.08799 -0.06577,0.131538 -0.0312,0.058 -0.07904,0.117002 -0.109615,0.175385 -0.0108,0.02062 -0.0112,0.0451 -0.02192,0.06577 -0.02385,0.0459 -0.06424,0.06348 -0.08769,0.109616 -0.0029,0.0057 0.0028,0.01628 0,0.02192 -0.0046,0.0088 -0.01739,0.01308 -0.02192,0.02192 -0.0029,0.0058 0.0029,0.01618 0,0.02192 -0.0043,0.0086 -0.0176,0.01327 -0.02192,0.02192 -0.02242,0.04414 -0.04365,0.08697 -0.06577,0.131539 -0.04914,0.100528 -0.08443,0.205657 -0.131539,0.306923 -0.02645,0.05685 -0.03996,0.118306 -0.06577,0.175385 -0.01348,0.02981 -0.03054,0.05781 -0.04385,0.08769 -0.01614,0.03609 -0.02795,0.07339 -0.04385,0.109616 -0.0039,0.0089 -0.03994,0.01303 -0.04385,0.02192 -0.0092,0.02112 -0.01278,0.0446 -0.02192,0.06577 -0.0091,0.02119 -0.01289,0.04455 -0.02192,0.06577 -0.0027,0.0064 0.0027,0.01553 0,0.02192 -0.0037,0.0088 -0.01818,0.0131 -0.02192,0.02192 -0.0061,0.01437 -0.01589,0.02946 -0.02192,0.04385 -0.0025,0.0061 0.0025,0.01585 0,0.02192 -0.01936,0.04605 -0.04674,0.08511 -0.06577,0.131538 -0.0025,0.0061 0.0025,0.0158 0,0.02192 -0.01714,0.0421 -0.02704,0.08933 -0.04385,0.131538 -0.02346,0.05884 -0.04293,0.116225 -0.06577,0.175385 -0.0025,0.0063 0.0025,0.0156 0,0.02192 -0.0034,0.0089 -0.01849,0.01296 -0.02192,0.02192 -0.0081,0.02103 -0.01395,0.04469 -0.02192,0.06577 -0.04063,0.107435 -0.07116,0.220784 -0.109615,0.3288472 -0.0152,0.04265 -0.05089,0.08874 -0.06577,0.131538 -0.01,0.02822 -0.01209,0.05951 -0.02192,0.08769 -0.0075,0.02185 -0.01456,0.0439 -0.02192,0.06577 -0.0022,0.0066 0.0022,0.01534 0,0.02192 -0.003,0.009 -0.01889,0.01287 -0.02192,0.02192 -0.02179,0.06511 -0.04472,0.131857 -0.06577,0.197308 -0.0021,0.0067 0.0021,0.01522 0,0.02192 -0.0022,0.0067 0.0021,0.01525 0,0.02192 -0.0048,0.01524 -0.01715,0.02857 -0.02192,0.04385 -0.03412,0.10801 -0.05562,0.219935 -0.08769,0.328847 -0.002,0.0069 0.002,0.01508 0,0.02192 -0.02601,0.08874 -0.06304,0.151834 -0.08769,0.241154 -0.01199,0.04345 -0.01026,0.08795 -0.02192,0.131539 -0.01742,0.06528 -0.04911,0.131869 -0.06577,0.197308 -0.0039,0.0153 -0.01805,0.02853 -0.02192,0.04385 -0.01411,0.05675 -0.03025,0.118247 -0.04385,0.175384 -0.0233,0.0967 -0.04408,0.187674 -0.06577,0.285001 -0.0015,0.0069 0.0015,0.01498 0,0.02192 -0.01099,0.04959 -0.01135,0.103708 -0.02192,0.153462 -0.0015,0.0069 0.0015,0.01496 0,0.02192 -0.0076,0.03593 -0.01455,0.0736 -0.02192,0.109615 -0.0017,0.0084 -0.0202,0.01352 -0.02192,0.02192 -0.0013,0.006 0.0013,0.01586 0,0.02192 -0.0046,0.02189 -0.01741,0.04394 -0.02192,0.06577 l -3.398087,1.008509 c -0.417363,0.0039 -0.74924,0.3060978 -0.745385,0.7234618 l 0.02192,3.726926 c 0.0039,0.417364 0.349945,0.727318 0.767308,0.723463 l 3.376157,0.811154 c 0.03715,0.180732 0.08887,0.347458 0.131538,0.526155 0.0016,0.0069 -0.0016,0.01506 0,0.02192 0.04128,0.172606 0.08497,0.354599 0.131539,0.526154 0.0018,0.0067 -0.0018,0.01515 0,0.02192 0.0061,0.02225 0.01575,0.04355 0.02192,0.06577 0.004,0.01512 0.01788,0.02871 0.02192,0.04385 0.0081,0.02894 0.01365,0.05881 0.02192,0.08769 0.0019,0.0067 -0.002,0.0152 0,0.02192 0.0064,0.02208 0.01549,0.04373 0.02192,0.06577 0.002,0.0067 -0.002,0.01521 0,0.02192 0.01036,0.03687 0.03318,0.07268 0.04385,0.109616 0.0086,0.02889 0.01313,0.05887 0.02192,0.08769 0.0027,0.0092 0.01919,0.01272 0.02192,0.02192 0.004,0.01296 -0.004,0.0309 0,0.04385 0.0067,0.02174 0.0151,0.04405 0.02192,0.06577 0.0048,0.01514 0.01712,0.02872 0.02192,0.04385 0.007,0.0221 0.01484,0.04371 0.02192,0.06577 0.01414,0.044 0.0074,0.08763 0.02192,0.131539 0.02128,0.06441 0.04376,0.133226 0.06577,0.197308 0.0051,0.01497 0.01675,0.0289 0.02192,0.04385 0.06771,0.195416 0.144875,0.377745 0.219231,0.57 0.02875,0.07433 0.05797,0.145389 0.08769,0.219231 0.01486,0.03703 0.02874,0.0727 0.04385,0.109616 0.04771,0.116755 0.08061,0.233819 0.131538,0.350769 0.03524,0.08106 0.07309,0.160517 0.109616,0.241154 0.01334,0.02938 0.03036,0.0584 0.04385,0.08769 0.01775,0.03861 0.04773,0.07111 0.06577,0.109615 0.04212,0.08971 0.08795,0.174193 0.131538,0.263077 0.02876,0.05877 0.05823,0.138795 0.08769,0.197308 0.003,0.0058 -0.003,0.01609 0,0.02192 0.03132,0.06192 0.05566,0.113881 0.08769,0.175385 0.003,0.0057 -0.003,0.01625 0,0.02192 0.07498,0.143328 0.161124,0.273565 0.241155,0.416539 0.0032,0.0056 -0.0032,0.0163 0,0.02192 0.01307,0.02328 0.03065,0.0425 0.04385,0.06577 0.01609,0.02853 0.02759,0.05923 0.04385,0.08769 0.03098,0.05523 0.07831,0.09902 0.109615,0.153462 0.0084,0.01426 0.01353,0.0296 0.02192,0.04385 0.0031,0.0053 -0.0032,0.01667 0,0.02192 0.04986,0.08373 0.123746,0.157656 0.175385,0.241154 0.01394,0.02267 0.0298,0.04317 0.04385,0.06577 0.0085,0.01365 -0.0085,0.03022 0,0.04385 0.02303,0.03685 0.04244,0.0729 0.06577,0.109616 0.0032,0.0051 -0.0033,0.01678 0,0.02192 0.0052,0.0081 0.01672,0.0138 0.02192,0.02192 0.02532,0.03962 0.06207,0.07021 0.08769,0.109616 0.0032,0.005 -0.0033,0.01693 0,0.02192 0.03653,0.05704 0.07281,0.119397 0.109615,0.175384 l -1.688078,3.11308 c -0.292395,0.297847 -0.297849,0.759914 0,1.052309 l 2.652695,2.608848 c 0.297846,0.292395 0.759914,0.275922 1.052308,-0.02192 l 2.959617,-1.819617 c 0.09405,0.06198 0.189698,0.137095 0.285,0.197308 0.208403,0.13154 0.423144,0.250731 0.63577,0.372692 0.08543,0.04916 0.176749,0.08377 0.263077,0.131539 0.01404,0.0077 0.02979,0.01422 0.04385,0.02192 0.13881,0.07622 0.253538,0.168604 0.394615,0.241154 0.04406,0.02266 0.08726,0.04347 0.131539,0.06577 0.0058,0.0029 0.01613,-0.0029 0.02192,0 0.0085,0.0043 0.0134,0.01766 0.02192,0.02192 0.0088,0.0044 0.01313,0.01755 0.02192,0.02192 0.0059,0.0029 0.01601,-0.0029 0.02192,0 0.02952,0.01488 0.05798,0.0291 0.08769,0.04385 0.115154,0.05628 0.23465,0.09984 0.350769,0.153462 0.006,0.0028 0.01592,-0.0027 0.02192,0 0.03587,0.01651 0.07366,0.02758 0.109616,0.04385 0.02981,0.01348 0.05781,0.03054 0.08769,0.04385 0.01478,0.0066 0.02905,0.01536 0.04385,0.02192 0.0148,0.0065 0.02903,0.01542 0.04385,0.02192 0.01237,0.0055 0.03147,0.01652 0.04385,0.02192 0.01458,0.0064 0.02925,0.01561 0.04385,0.02192 0.02998,0.01301 0.05763,0.03099 0.08769,0.04385 0.01503,0.0065 0.02879,0.01553 0.04385,0.02192 0.01517,0.0065 0.02865,0.01552 0.04385,0.02192 0.09972,0.04205 0.205419,0.06914 0.306923,0.109615 0.0736,0.02937 0.145137,0.05929 0.219231,0.08769 0.06375,0.02444 0.133199,0.04206 0.197308,0.06577 0.07903,0.02924 0.161583,0.05956 0.241154,0.08769 0.01515,0.0053 0.02867,0.01663 0.04385,0.02192 0.03454,0.0121 0.07498,0.03196 0.109616,0.04385 0.06592,0.0225 0.130739,0.04396 0.197307,0.06577 0.0066,0.0022 0.01534,-0.0021 0.02192,0 0.0067,0.0022 0.01527,-0.0022 0.02192,0 0.02162,0.007 0.04408,0.01497 0.06577,0.02192 0.01526,0.0049 0.02857,0.01703 0.04385,0.02192 0.02195,0.007 0.04378,0.01498 0.06577,0.02192 0.02193,0.0069 0.0438,0.01508 0.06577,0.02192 0.03542,0.01103 0.0741,0.01111 0.109615,0.02192 0.145959,0.04444 0.268975,0.09081 0.416539,0.131539 0.02827,0.008 0.05949,0.01404 0.08769,0.02192 0.01396,0.0038 0.02987,-0.0037 0.04385,0 0.02251,0.006 0.04324,0.03793 0.06577,0.04385 0.01566,0.0041 0.02817,0.01784 0.04385,0.02192 0.007,0.0018 0.01491,-0.0018 0.02192,0 0.0297,0.0077 0.05793,0.01438 0.08769,0.02192 0.007,0.0018 0.0149,-0.0018 0.02192,0 0.254117,0.06407 0.508856,0.10057 0.767308,0.153462 0.01514,0.0031 0.02869,0.01886 0.04385,0.02192 0.02189,0.0046 0.04394,0.01741 0.06577,0.02192 l 1.008463,3.39808 c 0.0039,0.417364 0.306098,0.74924 0.723462,0.745385 l 3.726926,-0.02192 c 0.417364,-0.0039 0.727317,-0.349945 0.723462,-0.767308 l 0.811155,-3.376157 c 0.06724,-0.01383 0.130339,-0.02925 0.197308,-0.04385 0.01543,-0.0034 0.02843,-0.01853 0.04385,-0.02192 0.02997,-0.0066 0.05778,-0.01515 0.08769,-0.02192 0.06629,-0.01496 0.131161,-0.02811 0.197308,-0.04385 0.09506,-0.0227 0.190534,-0.01961 0.285,-0.04385 0.01559,-0.004 0.02827,-0.0179 0.04385,-0.02192 0.02225,-0.0058 0.04354,-0.01606 0.06577,-0.02192 0.01555,-0.0041 0.05024,-0.01778 0.06577,-0.02192 0.0291,-0.0077 0.05864,-0.01405 0.08769,-0.02192 0.02904,-0.0079 0.0587,-0.01391 0.08769,-0.02192 0.0067,-0.0019 0.01517,0.0019 0.02192,0 0.02222,-0.0062 0.04359,-0.01567 0.06577,-0.02192 0.04434,-0.01257 0.08733,-0.03094 0.131539,-0.04385 0.0044,-0.0013 0.01752,0.0013 0.02192,0 0.134973,-0.03941 0.260991,-0.08899 0.394616,-0.131539 0.01557,-0.005 0.02829,-0.01693 0.04385,-0.02192 0.107709,-0.03467 0.222044,-0.05102 0.328846,-0.08769 0.156646,-0.05385 0.305751,-0.11726 0.460385,-0.175385 0.03697,-0.0139 0.07276,-0.02971 0.109616,-0.04385 0.01539,-0.0059 0.02848,-0.01598 0.04385,-0.02192 0.0305,-0.0118 0.05728,-0.03188 0.08769,-0.04385 0.0149,-0.0058 0.02898,-0.01608 0.04385,-0.02192 0.02775,-0.01101 0.06001,-0.01078 0.08769,-0.02192 0.189119,-0.07566 0.380364,-0.135104 0.57,-0.219231 0.07377,-0.03274 0.145997,-0.07589 0.219231,-0.109615 0.03003,-0.01383 0.05776,-0.02986 0.08769,-0.04385 0.01491,-0.0069 0.02895,-0.01491 0.04385,-0.02192 0.009,-0.0043 0.01289,-0.01765 0.02192,-0.02192 0.01479,-0.007 0.02908,-0.01489 0.04385,-0.02192 0.06035,-0.02876 0.115413,-0.05826 0.175385,-0.08769 0.06597,-0.03237 0.153725,-0.05452 0.219231,-0.08769 0.05303,-0.02683 0.10074,-0.03842 0.153462,-0.06577 0.0045,-0.0023 0.01743,0.0024 0.02192,0 0.09728,-0.05067 0.18879,-0.12296 0.285,-0.175385 0.05256,-0.0287 0.100961,-0.0583 0.153462,-0.08769 0.07848,-0.04378 0.163416,-0.0866 0.241154,-0.131539 0.0146,-0.0083 0.0293,-0.01362 0.04385,-0.02192 0.0089,-0.0051 0.01307,-0.01676 0.02192,-0.02192 0.02309,-0.01347 0.04272,-0.03026 0.06577,-0.04385 0.01413,-0.0083 0.02975,-0.01355 0.04385,-0.02192 0.01411,-0.0084 0.02976,-0.01351 0.04385,-0.02192 0.131004,-0.07883 0.26424,-0.157939 0.394615,-0.241154 0.05352,-0.034 0.100335,-0.07506 0.153462,-0.109616 0.06248,-0.03992 0.13609,-0.06938 0.197308,-0.109615 l 3.11308,1.688078 c 0.297846,0.292395 0.759914,0.29787 1.052308,0 L 80.370759,9.625854 C 80.663153,9.328007 80.646681,8.865939 80.348839,8.573545 L 78.529222,5.613927 c 0.03831,-0.05814 0.0939,-0.116764 0.131538,-0.175385 0.0234,-0.03647 0.04267,-0.07301 0.06577,-0.109615 0.104783,-0.165856 0.185666,-0.334664 0.285001,-0.504231 0.02145,-0.03655 0.04458,-0.0729 0.06577,-0.109616 0.0081,-0.01408 0.01383,-0.02975 0.02192,-0.04385 0.01619,-0.02744 0.02778,-0.06005 0.04385,-0.08769 0.02853,-0.05052 0.05965,-0.102626 0.08769,-0.153461 0.03988,-0.07214 0.09265,-0.146474 0.131538,-0.219231 0.0078,-0.01425 0.01417,-0.02955 0.02192,-0.04385 0.02297,-0.04335 0.04319,-0.08804 0.06577,-0.131539 0.02233,-0.04297 0.04378,-0.06644 0.06577,-0.109615 0.0073,-0.01435 0.01467,-0.02948 0.02192,-0.04385 0.0044,-0.0088 0.01751,-0.01315 0.02192,-0.02192 0.0074,-0.01475 0.01454,-0.02907 0.02192,-0.04385 0.02164,-0.04328 0.04447,-0.08806 0.06577,-0.131538 0.0072,-0.01444 0.01479,-0.02936 0.02192,-0.04385 0.03772,-0.07763 0.05109,-0.162884 0.08769,-0.241154 0.004,-0.0086 0.01792,-0.01335 0.02192,-0.02192 0.0098,-0.02103 0.01223,-0.04471 0.02192,-0.06577 0.01668,-0.0362 0.0274,-0.07329 0.04385,-0.109616 0.01348,-0.02981 0.03054,-0.05781 0.04385,-0.08769 0.0067,-0.01494 0.01531,-0.02889 0.02192,-0.04385 0.0067,-0.01504 0.01529,-0.02878 0.02192,-0.04385 0.0039,-0.0087 0.01811,-0.01318 0.02192,-0.02192 0.0027,-0.0062 0.01922,-0.01573 0.02192,-0.02192 0.0056,-0.01296 -0.0056,-0.03087 0,-0.04385 0.0041,-0.0093 0.0179,-0.01262 0.02192,-0.02192 0.0037,-0.0086 0.01825,-0.01336 0.02192,-0.02192 0.0027,-0.0062 -0.0027,-0.01566 0,-0.02192 0.0027,-0.0063 -0.0027,-0.01557 0,-0.02192 0.0027,-0.0062 -0.0027,-0.01564 0,-0.02192 0.004,-0.0093 0.01797,-0.01259 0.02192,-0.02192 0.0065,-0.01517 0.01552,-0.02865 0.02192,-0.04385 0.04212,-0.09988 0.06907,-0.205253 0.109616,-0.306924 0.02276,-0.05718 0.04364,-0.118016 0.06577,-0.175385 0.0022,-0.0059 -0.0022,-0.01602 0,-0.02192 0.0034,-0.009 0.01846,-0.01289 0.02192,-0.02192 0.0058,-0.01515 0.01616,-0.02868 0.02192,-0.04385 0.01844,-0.04855 0.02582,-0.104698 0.04385,-0.153462 0.008,-0.02172 0.01399,-0.04401 0.02192,-0.06577 0.01038,-0.02794 0.01172,-0.05978 0.02192,-0.08769 0.0032,-0.0088 0.01878,-0.01312 0.02192,-0.02192 0.0046,-0.01302 -0.0046,-0.0308 0,-0.04385 0.0077,-0.02126 0.01433,-0.04453 0.02192,-0.06577 0.0032,-0.0091 0.04066,-0.01278 0.04385,-0.02192 0.0076,-0.02191 0.01438,-0.04382 0.02192,-0.06577 0.0022,-0.0064 -0.0022,-0.01551 0,-0.02192 0.01728,-0.05048 0.02702,-0.102775 0.04385,-0.153462 0.0051,-0.01531 0.01687,-0.02853 0.02192,-0.04385 0.01445,-0.04373 0.02974,-0.08766 0.04385,-0.131539 0.0043,-0.01326 -0.0042,-0.03057 0,-0.04385 0.0048,-0.01529 0.0171,-0.02853 0.02192,-0.04385 0.0021,-0.0067 -0.002,-0.0152 0,-0.02192 0.01609,-0.0513 0.02824,-0.102045 0.04385,-0.153462 0.01541,-0.05111 0.02885,-0.101995 0.04385,-0.153462 0.02601,-0.08873 0.06304,-0.151834 0.08769,-0.241154 0.0018,-0.0067 -0.0018,-0.01522 0,-0.02192 0.01181,-0.04333 0.0104,-0.08796 0.02192,-0.131538 0.0063,-0.02279 0.03765,-0.04302 0.04385,-0.06577 0.01519,-0.05788 0.02924,-0.117265 0.04385,-0.175384 0.0034,-0.0135 -0.0034,-0.03033 0,-0.04385 0.03644,-0.140893 0.07736,-0.277737 0.109615,-0.416538 0.02058,-0.09231 0.02472,-0.192137 0.04385,-0.285001 0.0033,-0.01545 0.01865,-0.02843 0.02192,-0.04385 0.0061,-0.02863 0.01602,-0.05917 0.02192,-0.08769 l 3.39808,-1.008463 c 0.417364,-0.0039 0.74924,-0.306099 0.745385,-0.723462 l -0.02193,-3.726926 c -0.0039,-0.4173638 -0.349945,-0.7273168 -0.767308,-0.7234618 l -3.376134,-0.811135 c -0.01383,-0.06726 -0.02925,-0.130322 -0.04385,-0.197308 -0.0034,-0.01543 -0.01851,-0.02843 -0.02192,-0.04385 -0.0066,-0.02996 -0.01516,-0.05779 -0.02192,-0.08769 -0.01514,-0.06688 -0.02795,-0.130713 -0.04385,-0.197308 -0.02157,-0.0907 -0.04273,-0.172663 -0.06577,-0.263077 -0.0018,-0.0068 0.0018,-0.01508 0,-0.02192 -0.01325,-0.05159 -0.03014,-0.123985 -0.04385,-0.175385 -0.0078,-0.02921 -0.01399,-0.05854 -0.02192,-0.08769 -0.0072,-0.02805 -0.01451,-0.05959 -0.02192,-0.08769 -0.0043,-0.01546 -0.01759,-0.0284 -0.02192,-0.04385 -0.0018,-0.0065 0.0018,-0.01544 0,-0.02192 -0.01442,-0.05111 -0.02898,-0.10254 -0.04385,-0.153462 -0.0042,-0.01516 -0.01764,-0.02867 -0.02192,-0.04385 -0.0018,-0.0062 0.0019,-0.01571 0,-0.02192 -0.009,-0.03049 -0.03465,-0.05727 -0.04385,-0.08769 -0.0153,-0.05075 -0.02808,-0.102824 -0.04385,-0.153461 -0.002,-0.0066 0.0021,-0.01531 0,-0.02192 -0.0066,-0.02182 -0.0152,-0.04392 -0.02192,-0.06577 -0.007,-0.02209 -0.01481,-0.04372 -0.02192,-0.06577 -0.01433,-0.04449 -0.0073,-0.08732 -0.02192,-0.131539 -0.01632,-0.04936 -0.02711,-0.10429 -0.04385,-0.153461 -0.0051,-0.01515 -0.01673,-0.0287 -0.02192,-0.04385 -0.02848,-0.08262 -0.07994,-0.159088 -0.109615,-0.2411542 -0.0077,-0.0217 -0.01411,-0.04406 -0.02192,-0.06577 -0.008,-0.02194 -0.01383,-0.04387 -0.02192,-0.06577 -0.03007,-0.08133 -0.05646,-0.160392 -0.08769,-0.241154 -0.0025,-0.0063 0.0025,-0.01563 0,-0.02192 -0.0058,-0.015 -0.01609,-0.02886 -0.02192,-0.04385 -0.0034,-0.0087 -0.01851,-0.01326 -0.02192,-0.02192 -0.0026,-0.0066 0.0026,-0.01534 0,-0.02192 -0.0025,-0.0064 0.0026,-0.01552 0,-0.02192 -0.01183,-0.02986 -0.03186,-0.05791 -0.04385,-0.08769 -0.0062,-0.01558 -0.01563,-0.02826 -0.02192,-0.04385 -0.0025,-0.0062 0.0026,-0.01567 0,-0.02192 -0.06764,-0.166976 -0.123065,-0.336874 -0.197308,-0.504232 -0.0262,-0.05902 -0.06087,-0.116707 -0.08769,-0.175384 -0.01755,-0.03828 -0.04795,-0.07148 -0.06577,-0.109616 -0.02092,-0.04488 -0.04449,-0.08686 -0.06577,-0.131538 -0.0277,-0.05812 -0.05917,-0.11727 -0.08769,-0.175385 -0.02906,-0.05926 -0.05799,-0.138426 -0.08769,-0.197308 -0.0029,-0.0058 0.0029,-0.0161 0,-0.02192 -0.0312,-0.06162 -0.05557,-0.113804 -0.08769,-0.175385 -0.05076,-0.09745 -0.10094,-0.18862 -0.153462,-0.285 -0.05258,-0.09628 -0.09858,-0.188922 -0.153462,-0.285 -0.02092,-0.03681 -0.04458,-0.07297 -0.06577,-0.109616 -0.0083,-0.0146 -0.01362,-0.0293 -0.02192,-0.04385 -0.0025,-0.0043 -0.01943,0.0042 -0.02192,0 -0.0031,-0.0053 0.0031,-0.01666 0,-0.02192 -0.0083,-0.01417 -0.01361,-0.0297 -0.02192,-0.04385 -0.0135,-0.02342 -0.03029,-0.04249 -0.04385,-0.06577 -0.0084,-0.0141 -0.01351,-0.02977 -0.02192,-0.04385 -0.0051,-0.0084 -0.01684,-0.01351 -0.02192,-0.02192 -0.01621,-0.02683 -0.02745,-0.06089 -0.04385,-0.08769 -0.06108,-0.10056 -0.112096,-0.185405 -0.175385,-0.285001 -0.034,-0.05352 -0.07506,-0.100334 -0.109615,-0.153461 -0.03992,-0.06248 -0.06938,-0.13609 -0.109616,-0.197308 l 1.688079,-3.11308 c 0.292394,-0.297847 0.29787,-0.759914 0,-1.052308 l -2.652728,-2.608862 c -0.297847,-0.292394 -0.759914,-0.275924 -1.052308,0.02192 l -2.959618,1.819617 c -0.05866,-0.03864 -0.116369,-0.09367 -0.175385,-0.131538 -0.233158,-0.149716 -0.482892,-0.277695 -0.723462,-0.416539 -0.01408,-0.0081 -0.02975,-0.01383 -0.04385,-0.02192 -0.02744,-0.01619 -0.06005,-0.02777 -0.08769,-0.04385 -0.01993,-0.01128 -0.04579,-0.01072 -0.06577,-0.02192 -0.03175,-0.01781 -0.05582,-0.04815 -0.08769,-0.06577 -0.01443,-0.008 -0.02939,-0.01399 -0.04385,-0.02192 -0.05781,-0.03174 -0.117183,-0.07851 -0.175385,-0.109615 -0.01425,-0.0078 -0.02955,-0.01418 -0.04385,-0.02192 -0.04373,-0.02321 -0.08759,-0.04291 -0.131538,-0.06577 -0.0058,-0.003 -0.01613,0.003 -0.02192,0 -0.03799,-0.01966 -0.04969,-0.04643 -0.08769,-0.06577 -0.01435,-0.0073 -0.02948,-0.01467 -0.04385,-0.02192 -0.0088,-0.0046 -0.01308,-0.01739 -0.02192,-0.02192 -0.05761,-0.02901 -0.117411,-0.0593 -0.175385,-0.08769 -0.01444,-0.0072 -0.02936,-0.01479 -0.04385,-0.02192 -0.03497,-0.01701 -0.07452,-0.02707 -0.109616,-0.04385 -0.107141,-0.0511 -0.220891,-0.08272 -0.328846,-0.131538 -0.02981,-0.01348 -0.05781,-0.03054 -0.08769,-0.04385 -0.05739,-0.02566 -0.117674,-0.06264 -0.175385,-0.08769 -0.02143,-0.0093 -0.04429,-0.0127 -0.06577,-0.02192 -0.02394,-0.01028 -0.04178,-0.03367 -0.06577,-0.04385 -0.01517,-0.0065 -0.02865,-0.01553 -0.04385,-0.02192 -0.155563,-0.0656 -0.32241,-0.113642 -0.482308,-0.175385 -0.0065,-0.0025 -0.01549,0.0025 -0.02192,0 -0.0087,-0.0033 -0.01326,-0.01861 -0.02192,-0.02192 -0.08639,-0.03308 -0.176032,-0.05595 -0.263077,-0.08769 -0.01478,-0.0055 -0.02907,-0.01648 -0.04385,-0.02192 -0.02829,-0.01023 -0.05933,-0.01183 -0.08769,-0.02192 -0.02836,-0.01009 -0.05926,-0.01197 -0.08769,-0.02192 -0.0086,-0.003 -0.01334,-0.04085 -0.02192,-0.04385 -0.0218,-0.0076 -0.04394,-0.01442 -0.06577,-0.02192 -0.0065,-0.0022 -0.01537,0.0022 -0.02192,0 -0.04392,-0.01503 -0.08746,-0.02915 -0.131538,-0.04385 -0.02152,-0.0072 -0.04422,-0.0148 -0.06577,-0.02192 -0.02842,-0.0094 -0.05921,-0.01268 -0.08769,-0.02192 -0.16783,-0.05424 -0.334207,-0.104168 -0.504231,-0.153461 -0.07167,-0.02082 -0.125424,-0.02395 -0.197308,-0.04385 -0.009,-0.0025 -0.01294,-0.01945 -0.02192,-0.02192 -0.04345,-0.01199 -0.08795,-0.01026 -0.131539,-0.02192 -0.02279,-0.0063 -0.04302,-0.03765 -0.06577,-0.04385 -0.0437,-0.01136 -0.0876,-0.01087 -0.131539,-0.02192 -0.01571,-0.004 -0.02812,-0.01796 -0.04385,-0.02192 -0.01406,-0.0036 -0.02977,0.0035 -0.04385,0 -0.142021,-0.03543 -0.273153,-0.07765 -0.416539,-0.109616 -0.04961,-0.01106 -0.103687,-0.01128 -0.153462,-0.02192 -0.01388,-0.0029 -0.02996,0.0029 -0.04385,0 -0.03558,-0.0078 -0.07419,-0.01435 -0.109615,-0.02192 -0.03743,-0.008 -0.07237,-0.03614 -0.109616,-0.04385 l -1.008462,-3.39808 c -0.0039,-0.417364 -0.306098,-0.74924 -0.723462,-0.745385 z m -1.710001,10.040778 c 6.276358,0 11.356163,5.079805 11.356163,11.356164 0,6.276358 -5.079805,11.356163 -11.356163,11.356163 -6.276359,0 -11.356164,-5.079805 -11.356164,-11.356163 0,-6.276359 5.079805,-11.356164 11.356164,-11.356164 z"
         style="color:#000000;fill:url(#linearGradient15807);fill-opacity:1;stroke:#001616;stroke-width:0.72207218;stroke-miterlimit:4;stroke-opacity:1;stroke-dasharray:none;marker:none;visibility:visible;display:inline;overflow:visible;enable-background:accumulate"
         inkscape:connector-curvature="0" />
      <path
         transform="matrix(0.70153907,0,0,0.70153907,38.202658,-25.738076)"
         d="m 52.545456,30.90909 c 0,8.836556 -7.163444,16 -16,16 -8.836556,0 -16,-7.163444 -16,-16 0,-8.836556 7.163444,-16 16,-16 8.836556,0 16,7.163444 16,16 z"
         sodipodi:ry="16"
         sodipodi:rx="16"
         sodipodi:cy="30.90909"
         sodipodi:cx="36.545456"
         id="path14808"
         style="color:#000000;fill:#ffffff;fill-opacity:1;fill-rule:nonzero;stroke:#001616;stroke-width:1;stroke-linecap:square;stroke-linejoin:miter;stroke-miterlimit:4;stroke-opacity:1;stroke-dasharray:none;stroke-dashoffset:0;marker:none;visibility:visible;display:inline;overflow:visible;enable-background:accumulate"
         sodipodi:type="arc" />
      <g
         transform="matrix(0.70153907,0,0,0.70153907,25.779159,-61.5797)"
         id="g14670">
        <path
           style="fill:#000000;fill-opacity:1;stroke:#000000;stroke-width:0.50414705;stroke-linecap:butt;stroke-linejoin:miter;stroke-miterlimit:4;stroke-opacity:1;stroke-dasharray:none"
           d="m 26.506448,81.999082 27.747926,-2.747926 27.747928,2.747926 -27.747928,2.747927 z"
           id="path3765-14"
           inkscape:connector-curvature="0" />
        <path
           style="fill:#000000;fill-opacity:1;stroke:#000000;stroke-width:0.50414705;stroke-linecap:butt;stroke-linejoin:miter;stroke-miterlimit:4;stroke-opacity:1;stroke-dasharray:none"
           d="M 54.254374,109.74701 51.506449,81.999083 54.254374,54.251154 57.002301,81.999083 z"
           id="path3765-1-3"
           inkscape:connector-curvature="0" />
        <path
           style="fill:#000000;fill-opacity:1;stroke:#000000;stroke-width:0.37858936;stroke-linecap:butt;stroke-linejoin:miter;stroke-miterlimit:4;stroke-opacity:1;stroke-dasharray:none"
           d="M 39.51967,96.733789 55.713029,83.458738 68.988081,67.265378 52.79472,80.540429 z"
           id="path3765-1-7-4-1"
           inkscape:connector-curvature="0" />
        <path
           style="fill:#000000;fill-opacity:1;stroke:#000000;stroke-width:0.37858936;stroke-linecap:butt;stroke-linejoin:miter;stroke-miterlimit:4;stroke-opacity:1;stroke-dasharray:none"
           d="M 68.988081,96.733789 52.794722,83.458738 39.51967,67.265378 55.713031,80.540429 z"
           id="path3765-1-7-4-9-2"
           inkscape:connector-curvature="0" />
      </g>
    </g>
  </g>
</svg>
